<?xml version="1.0" encoding="utf-8"?>
<!-- Generator: Adobe Illustrator 25.3.1, SVG Export Plug-In . SVG Version: 6.00 Build 0)  -->
<svg version="1.1" id="Layer_1" xmlns="http://www.w3.org/2000/svg" xmlns:xlink="http://www.w3.org/1999/xlink" x="0px" y="0px"
	 viewBox="0 0 1280 720" style="enable-background:new 0 0 1280 720;" xml:space="preserve">
<style type="text/css">
	.st0{fill:#F5F5F5;}
	.st1{fill:#E1E1E1;}
	.st2{fill:#ECECEC;}
	.st3{fill:#FAFAFA;}
	.st4{fill:#1A2E35;}
	.st5{fill:#375A64;}
	.st6{fill:#29AFC7;}
	.st7{opacity:0.3;}
	.st8{fill:#FFFFFF;}
	.st9{fill:#FFC19D;}
	.st10{fill:#FF9C6A;}
</style>
<g>
	<g>
		<g>
			<g>
				<path class="st0" d="M963.76,310.48h166.44h44.56l-34.37,24.8v48.8c0,5.63-4.56,10.19-10.19,10.19H963.76
					c-5.63,0-10.19-4.56-10.19-10.19v-63.41C953.57,315.05,958.13,310.48,963.76,310.48z"/>
			</g>
		</g>
	</g>
	<g>
		<g>
			<g>
				<g>
					<path class="st1" d="M972.56,344.97c0,0.2,31.82,0.37,71.07,0.37c39.26,0,71.08-0.16,71.08-0.37c0-0.2-31.82-0.37-71.08-0.37
						C1004.38,344.6,972.56,344.77,972.56,344.97z"/>
				</g>
			</g>
		</g>
	</g>
	<g>
		<g>
			<g>
				<g>
					<path class="st1" d="M972.56,363.7c0,0.2,31.82,0.37,71.07,0.37c39.26,0,71.08-0.16,71.08-0.37c0-0.2-31.82-0.37-71.08-0.37
						C1004.38,363.34,972.56,363.5,972.56,363.7z"/>
				</g>
			</g>
		</g>
	</g>
</g>
<g>
	<g>
		<g>
			<g>
				<g>
					<g>
						<rect x="633.43" y="130.42" class="st1" width="9.87" height="33.08"/>
					</g>
				</g>
				<g>
					<g>
						<rect x="550.95" y="125.63" class="st1" width="9.87" height="37.87"/>
					</g>
				</g>
				<g>
					<g>
						<rect x="571.57" y="117.74" class="st1" width="9.87" height="45.76"/>
					</g>
				</g>
				<g>
					<g>
						<rect x="592.19" y="120.25" class="st1" width="9.87" height="43.25"/>
					</g>
				</g>
				<g>
					<g>
						<rect x="612.81" y="105.62" class="st1" width="9.87" height="57.88"/>
					</g>
				</g>
				<g>
					<g>
						<rect x="654.04" y="105.9" class="st1" width="9.87" height="57.6"/>
					</g>
				</g>
				<g>
					<g>
						<rect x="674.66" y="124.82" class="st1" width="9.87" height="38.68"/>
					</g>
				</g>
				<g>
					<g>
						<rect x="695.28" y="108.43" class="st1" width="9.87" height="55.06"/>
					</g>
				</g>
				<g>
					<g>
						<rect x="715.9" y="96.03" class="st1" width="9.87" height="67.47"/>
					</g>
				</g>
				<g>
					<g>
						<rect x="736.52" y="108.15" class="st1" width="9.87" height="55.35"/>
					</g>
				</g>
			</g>
		</g>
	</g>
</g>
<g>
	<g>
		<g>
			<g>
				<path class="st2" d="M1006.57,160.43l81.66-12.48c6.84,44.8-24.38,87.29-69.18,94.14c-44.8,6.84-87.29-24.38-94.14-69.18
					c-6.84-44.8,24.38-87.29,69.18-94.13c7.13-1.09,14.38-1.24,21.55-0.45L1006.57,160.43z"/>
			</g>
		</g>
	</g>
	<g>
		<g>
			<g>
				<path class="st1" d="M1033.06,78.59l-9.91,63.3l62.13-11.67C1085.28,130.22,1076.14,94.74,1033.06,78.59z"/>
			</g>
		</g>
	</g>
</g>
<g>
	<g>
		<g>
			<path class="st0" d="M172.77,313.98c-0.36-22.43,17.51-40.96,39.83-41.32c22.32-0.36,40.78,17.59,41.13,40.02
				c0.36,22.43-17.51,40.96-39.83,41.32C191.58,354.36,173.13,336.41,172.77,313.98z M232.61,313.02
				c-0.17-10.72-8.99-19.31-19.67-19.13c-10.67,0.17-19.22,9.04-19.05,19.76c0.17,10.72,8.99,19.31,19.67,19.13
				C224.24,332.61,232.78,323.74,232.61,313.02z"/>
		</g>
	</g>
	<g>
		<g>
			<path class="st1" d="M172.77,313.99c-0.36-22.43,17.51-40.96,39.83-41.32l0.34,21.22c-10.67,0.17-19.22,9.04-19.05,19.76
				c0.17,10.72,8.99,19.31,19.67,19.13l0.34,21.22C191.58,354.36,173.13,336.41,172.77,313.99z"/>
		</g>
	</g>
	<g>
		<g>
			<path class="st2" d="M208.97,269.4c26.12-0.42,46.95,19.85,47.37,46.08l-24.72,0.4c-0.2-12.54-9.75-20.44-22.23-20.24
				L208.97,269.4z"/>
		</g>
	</g>
</g>
<g>
	<g>
		<g>
			<g>
				<g>
					<g>
						<g>
							<rect x="384.35" y="456.79" class="st0" width="51.46" height="61.18"/>
						</g>
					</g>
				</g>
				<g>
					<g>
						<g>
							<rect x="153.55" y="452.8" class="st1" width="232.58" height="69.02"/>
						</g>
					</g>
				</g>
				<g>
					<g>
						<g>
							<path class="st1" d="M437.38,458.61h-57.49v-5.8h57.49c1.6,0,2.9,1.3,2.9,2.9l0,0C440.28,457.31,438.98,458.61,437.38,458.61
								z"/>
						</g>
					</g>
				</g>
				<g>
					<g>
						<g>
							<path class="st1" d="M437.38,521.82h-57.49v-5.8h57.49c1.6,0,2.9,1.3,2.9,2.9l0,0C440.28,520.52,438.98,521.82,437.38,521.82
								z"/>
						</g>
					</g>
				</g>
				<g>
					<g>
						<g>
							<rect x="340.36" y="452.8" class="st2" width="27.48" height="69.02"/>
						</g>
					</g>
				</g>
				<g>
					<g>
						<g>
							<rect x="175.66" y="453.57" class="st2" width="27.48" height="69.02"/>
						</g>
					</g>
				</g>
				<g>
					<g>
						<g>
							<g>
								<path class="st1" d="M435.82,466.91c0,0.17-11.14,0.31-24.88,0.31c-13.74,0-24.88-0.14-24.88-0.31
									c0-0.17,11.14-0.31,24.88-0.31C424.68,466.61,435.82,466.74,435.82,466.91z"/>
							</g>
						</g>
					</g>
				</g>
				<g>
					<g>
						<g>
							<g>
								<path class="st1" d="M435.82,476.09c0,0.17-11.14,0.31-24.88,0.31c-13.74,0-24.88-0.14-24.88-0.31
									c0-0.17,11.14-0.31,24.88-0.31C424.68,475.78,435.82,475.92,435.82,476.09z"/>
							</g>
						</g>
					</g>
				</g>
				<g>
					<g>
						<g>
							<g>
								<path class="st1" d="M435.82,487.38c0,0.17-11.14,0.31-24.88,0.31c-13.74,0-24.88-0.14-24.88-0.31
									c0-0.17,11.14-0.31,24.88-0.31C424.68,487.08,435.82,487.21,435.82,487.38z"/>
							</g>
						</g>
					</g>
				</g>
				<g>
					<g>
						<g>
							<g>
								<path class="st1" d="M435.82,498.68c0,0.17-11.14,0.31-24.88,0.31c-13.74,0-24.88-0.14-24.88-0.31
									c0-0.17,11.14-0.31,24.88-0.31C424.68,498.37,435.82,498.51,435.82,498.68z"/>
							</g>
						</g>
					</g>
				</g>
				<g>
					<g>
						<g>
							<g>
								<path class="st1" d="M435.82,509.98c0,0.17-11.14,0.31-24.88,0.31c-13.74,0-24.88-0.14-24.88-0.31
									c0-0.17,11.14-0.31,24.88-0.31C424.68,509.67,435.82,509.81,435.82,509.98z"/>
							</g>
						</g>
					</g>
				</g>
			</g>
			<g>
				<g>
					<g>
						<rect x="220.95" y="481.17" class="st2" width="104.63" height="12.43"/>
					</g>
				</g>
			</g>
		</g>
		<g>
			<g>
				<g>
					<g>
						<rect x="383.04" y="523.17" class="st3" width="52.25" height="37.28"/>
					</g>
				</g>
			</g>
			<g>
				<g>
					<g>
						<rect x="161.25" y="521.82" class="st0" width="222.38" height="39.98"/>
					</g>
				</g>
			</g>
			<g>
				<g>
					<g>
						<path class="st0" d="M382.01,524.53h56.16c0.75,0,1.35-0.61,1.35-1.35l0,0c0-0.75-0.61-1.35-1.35-1.35h-56.16V524.53z"/>
					</g>
				</g>
			</g>
			<g>
				<g>
					<g>
						<path class="st0" d="M382.01,561.81h57.1c0.23,0,0.42-0.19,0.42-0.42v-1.87c0-0.23-0.19-0.42-0.42-0.42h-57.1V561.81z"/>
					</g>
				</g>
			</g>
			<g>
				<g>
					<g>
						<g>
							<path class="st1" d="M435.29,530.26c0,0.17-11.57,0.31-25.83,0.31c-14.27,0-25.84-0.14-25.84-0.31
								c0-0.17,11.57-0.31,25.84-0.31C423.73,529.95,435.29,530.09,435.29,530.26z"/>
						</g>
					</g>
				</g>
			</g>
			<g>
				<g>
					<g>
						<g>
							<path class="st1" d="M435.29,537.31c0,0.17-11.57,0.31-25.83,0.31c-14.27,0-25.84-0.14-25.84-0.31
								c0-0.17,11.57-0.31,25.84-0.31C423.73,537,435.29,537.14,435.29,537.31z"/>
						</g>
					</g>
				</g>
			</g>
			<g>
				<g>
					<g>
						<g>
							<path class="st1" d="M435.29,544.36c0,0.17-11.57,0.31-25.83,0.31c-14.27,0-25.84-0.14-25.84-0.31
								c0-0.17,11.57-0.31,25.84-0.31C423.73,544.06,435.29,544.19,435.29,544.36z"/>
						</g>
					</g>
				</g>
			</g>
			<g>
				<g>
					<g>
						<g>
							<path class="st1" d="M435.29,551.42c0,0.17-11.57,0.31-25.83,0.31c-14.27,0-25.84-0.14-25.84-0.31
								c0-0.17,11.57-0.31,25.84-0.31C423.73,551.11,435.29,551.25,435.29,551.42z"/>
						</g>
					</g>
				</g>
			</g>
		</g>
		<g>
			<g>
				<g>
					<g>
						<rect x="389.88" y="565.36" class="st2" width="53.33" height="101.06"/>
					</g>
				</g>
			</g>
			<g>
				<g>
					<g>
						<rect x="139.53" y="561.81" class="st1" width="250.35" height="109.57"/>
					</g>
				</g>
			</g>
			<g>
				<g>
					<g>
						<path class="st1" d="M447.39,671.38h-64.35v-7.11h64.35c1.96,0,3.55,1.59,3.55,3.55l0,0
							C450.95,669.79,449.36,671.38,447.39,671.38z"/>
					</g>
				</g>
			</g>
			<g>
				<g>
					<g>
						<path class="st1" d="M449.85,568.91h-66.81v-7.11h66.81c0.61,0,1.1,0.49,1.1,1.1v4.9
							C450.95,568.42,450.45,568.91,449.85,568.91z"/>
					</g>
				</g>
			</g>
			<g>
				<g>
					<g>
						<g>
							<path class="st1" d="M443.22,578.91c0,0.17-11.94,0.31-26.67,0.31c-14.73,0-26.67-0.14-26.67-0.31
								c0-0.17,11.94-0.31,26.67-0.31C431.28,578.6,443.22,578.74,443.22,578.91z"/>
						</g>
					</g>
				</g>
			</g>
			<g>
				<g>
					<g>
						<g>
							<path class="st1" d="M443.22,591.87c0,0.17-11.94,0.31-26.67,0.31c-14.73,0-26.67-0.14-26.67-0.31
								c0-0.17,11.94-0.31,26.67-0.31C431.28,591.56,443.22,591.7,443.22,591.87z"/>
						</g>
					</g>
				</g>
			</g>
			<g>
				<g>
					<g>
						<g>
							<path class="st1" d="M443.22,604.83c0,0.17-11.94,0.31-26.67,0.31c-14.73,0-26.67-0.14-26.67-0.31
								c0-0.17,11.94-0.31,26.67-0.31C431.28,604.52,443.22,604.66,443.22,604.83z"/>
						</g>
					</g>
				</g>
			</g>
			<g>
				<g>
					<g>
						<g>
							<path class="st1" d="M443.22,617.79c0,0.17-11.94,0.31-26.67,0.31c-14.73,0-26.67-0.14-26.67-0.31
								c0-0.17,11.94-0.31,26.67-0.31C431.28,617.49,443.22,617.62,443.22,617.79z"/>
						</g>
					</g>
				</g>
			</g>
			<g>
				<g>
					<g>
						<g>
							<path class="st1" d="M443.22,630.75c0,0.17-11.94,0.31-26.67,0.31c-14.73,0-26.67-0.14-26.67-0.31
								c0-0.17,11.94-0.31,26.67-0.31C431.28,630.45,443.22,630.58,443.22,630.75z"/>
						</g>
					</g>
				</g>
			</g>
			<g>
				<g>
					<g>
						<g>
							<path class="st1" d="M443.22,643.71c0,0.17-11.94,0.31-26.67,0.31c-14.73,0-26.67-0.14-26.67-0.31
								c0-0.17,11.94-0.31,26.67-0.31C431.28,643.41,443.22,643.55,443.22,643.71z"/>
						</g>
					</g>
				</g>
			</g>
			<g>
				<g>
					<g>
						<g>
							<path class="st1" d="M443.22,656.68c0,0.17-11.94,0.31-26.67,0.31c-14.73,0-26.67-0.14-26.67-0.31
								c0-0.17,11.94-0.31,26.67-0.31C431.28,656.37,443.22,656.51,443.22,656.68z"/>
						</g>
					</g>
				</g>
			</g>
		</g>
	</g>
	<g>
		<g>
			<path class="st2" d="M225.2,622.59v6.1c0,7.34-3.67,11.54-10.75,11.54c-7.08,0-10.75-4.2-10.75-11.54v-23.86
				c0-7.34,3.67-11.54,10.75-11.54c7.08,0,10.75,4.2,10.75,11.54v4.46h-6.82v-4.92c0-3.28-1.44-4.52-3.74-4.52
				c-2.29,0-3.74,1.25-3.74,4.52v24.78c0,3.28,1.44,4.46,3.74,4.46c2.29,0,3.74-1.18,3.74-4.46v-6.56H225.2z"/>
		</g>
		<g>
			<path class="st2" d="M228.99,604.82c0-7.34,3.87-11.54,10.95-11.54c7.08,0,10.95,4.2,10.95,11.54v23.86
				c0,7.34-3.87,11.54-10.95,11.54c-7.08,0-10.95-4.2-10.95-11.54V604.82z M236.21,629.15c0,3.28,1.44,4.52,3.74,4.52
				c2.29,0,3.74-1.25,3.74-4.52v-24.78c0-3.28-1.44-4.52-3.74-4.52c-2.29,0-3.74,1.25-3.74,4.52V629.15z"/>
		</g>
		<g>
			<path class="st2" d="M255.54,593.81h7.21v39.33h11.87v6.56h-19.08V593.81z"/>
		</g>
		<g>
			<path class="st2" d="M277.17,604.82c0-7.34,3.87-11.54,10.95-11.54c7.08,0,10.95,4.2,10.95,11.54v23.86
				c0,7.34-3.87,11.54-10.95,11.54c-7.08,0-10.95-4.2-10.95-11.54V604.82z M284.38,629.15c0,3.28,1.44,4.52,3.74,4.52
				c2.29,0,3.74-1.25,3.74-4.52v-24.78c0-3.28-1.44-4.52-3.74-4.52c-2.29,0-3.74,1.25-3.74,4.52V629.15z"/>
		</g>
		<g>
			<path class="st2" d="M310.6,593.81v35.4c0,3.28,1.44,4.46,3.74,4.46c2.29,0,3.74-1.18,3.74-4.46v-35.4h6.82v34.94
				c0,7.34-3.67,11.54-10.75,11.54c-7.08,0-10.75-4.2-10.75-11.54v-34.94H310.6z"/>
		</g>
		<g>
			<path class="st2" d="M344.88,639.7c-0.39-1.18-0.66-1.9-0.66-5.64v-7.21c0-4.26-1.44-5.83-4.72-5.83h-2.49v18.68h-7.21v-45.89
				h10.88c7.47,0,10.69,3.47,10.69,10.55v3.61c0,4.72-1.51,7.8-4.72,9.31c3.61,1.51,4.79,4.98,4.79,9.77v7.08
				c0,2.23,0.07,3.87,0.79,5.57H344.88z M337.01,600.37v14.09h2.82c2.69,0,4.33-1.18,4.33-4.85v-4.52c0-3.28-1.11-4.72-3.67-4.72
				H337.01z"/>
		</g>
	</g>
	<g>
		<g>
			<path class="st1" d="M223.64,537.57h-5.26l0.28-1.36h12.07l-0.3,1.36h-5.24l-2.7,13.54h-1.55L223.64,537.57z"/>
		</g>
		<g>
			<path class="st1" d="M240.85,539.91l-8.17,12.65c-1.38,2.13-2.43,2.79-4.04,2.79c-1.04,0-2.11-0.36-2.66-1l0.81-1.11
				c0.49,0.51,1.13,0.81,1.98,0.81c0.96,0,1.7-0.45,2.58-1.81l0.79-1.19l-2.79-11.14h1.53l2.32,9.54l6.11-9.54H240.85z"/>
		</g>
		<g>
			<path class="st1" d="M253.3,544.55c0,3.85-2.68,6.66-6.34,6.66c-2.13,0-3.62-0.87-4.26-2.45l-1.28,6.47h-1.51l3.05-15.33h1.45
				l-0.36,1.79c1.06-1.19,2.56-1.87,4.37-1.87C251.28,539.83,253.3,541.62,253.3,544.55z M251.77,544.64c0-2.19-1.34-3.49-3.68-3.49
				c-2.79,0-4.83,2.19-4.83,5.26c0,2.19,1.34,3.47,3.68,3.47C249.73,549.88,251.77,547.68,251.77,544.64z"/>
		</g>
		<g>
			<path class="st1" d="M255.06,546.47c0-3.81,2.7-6.64,6.47-6.64c3.11,0,5.09,1.83,5.09,4.73c0,3.83-2.7,6.66-6.47,6.66
				C257.04,551.21,255.06,549.34,255.06,546.47z M265.11,544.64c0-2.19-1.34-3.49-3.68-3.49c-2.79,0-4.85,2.21-4.85,5.26
				c0,2.19,1.34,3.47,3.68,3.47C263.05,549.88,265.11,547.68,265.11,544.64z"/>
		</g>
		<g>
			<path class="st1" d="M281.11,539.91l-1.96,9.84c-0.79,3.96-2.87,5.6-6.51,5.6c-2.11,0-3.83-0.6-4.98-1.68l0.89-1.15
				c0.89,0.92,2.41,1.49,4.19,1.49c2.83,0,4.32-1.3,4.85-4l0.26-1.24c-1.06,1.19-2.58,1.92-4.47,1.92c-2.96,0-4.94-1.72-4.94-4.52
				c0-3.6,2.66-6.34,6.39-6.34c2.06,0,3.73,0.85,4.36,2.55l0.47-2.47H281.11z M278.56,544.4c0-2.04-1.38-3.26-3.71-3.26
				c-2.83,0-4.87,2.09-4.87,4.94c0,2.04,1.36,3.26,3.7,3.26C276.49,549.34,278.56,547.26,278.56,544.4z"/>
		</g>
		<g>
			<path class="st1" d="M290.98,539.83l-0.28,1.47c-0.15,0-0.26-0.02-0.43-0.02c-2.38,0-3.98,1.36-4.53,4.15l-1.13,5.68h-1.51
				l2.21-11.2h1.45l-0.38,2.04C287.39,540.49,288.85,539.83,290.98,539.83z"/>
		</g>
		<g>
			<path class="st1" d="M303.82,539.91l-2.23,11.2h-1.45l0.36-1.77c-1.06,1.17-2.55,1.87-4.36,1.87c-2.87,0-4.88-1.79-4.88-4.75
				c0-3.83,2.68-6.64,6.32-6.64c2.13,0,3.62,0.87,4.26,2.43l0.47-2.34H303.82z M301.3,544.64c0-2.19-1.34-3.49-3.68-3.49
				c-2.79,0-4.85,2.21-4.85,5.26c0,2.19,1.34,3.47,3.68,3.47C299.24,549.88,301.3,547.68,301.3,544.64z"/>
		</g>
		<g>
			<path class="st1" d="M318.35,544.55c0,3.85-2.68,6.66-6.34,6.66c-2.13,0-3.62-0.87-4.26-2.45l-1.28,6.47h-1.51l3.04-15.33h1.45
				l-0.36,1.79c1.06-1.19,2.56-1.87,4.37-1.87C316.33,539.83,318.35,541.62,318.35,544.55z M316.82,544.64
				c0-2.19-1.34-3.49-3.68-3.49c-2.79,0-4.83,2.19-4.83,5.26c0,2.19,1.34,3.47,3.68,3.47C314.77,549.88,316.82,547.68,316.82,544.64
				z"/>
		</g>
		<g>
			<path class="st1" d="M331.9,543.47c0,0.4-0.04,0.83-0.13,1.28l-1.28,6.36h-1.51l1.28-6.39c0.06-0.36,0.11-0.7,0.11-1.02
				c0-1.6-0.96-2.51-2.89-2.51c-2.38,0-4.02,1.3-4.56,3.92l-1.19,6h-1.51l3.15-15.8h1.51l-1.26,6.28c1.06-1.21,2.56-1.76,4.28-1.76
				C330.43,539.83,331.9,541.19,331.9,543.47z"/>
		</g>
		<g>
			<path class="st1" d="M346.05,539.91l-8.17,12.65c-1.38,2.13-2.43,2.79-4.04,2.79c-1.04,0-2.11-0.36-2.66-1l0.81-1.11
				c0.49,0.51,1.13,0.81,1.98,0.81c0.96,0,1.7-0.45,2.58-1.81l0.79-1.19l-2.79-11.14h1.53l2.32,9.54l6.11-9.54H346.05z"/>
		</g>
	</g>
</g>
<g>
	<g>
		<g>
			<g>
				<path class="st0" d="M379.78,79.72H200.62h-47.97l37,26.7v52.53c0,6.06,4.91,10.97,10.97,10.97h179.17
					c6.06,0,10.97-4.91,10.97-10.97V90.69C390.75,84.63,385.84,79.72,379.78,79.72z"/>
			</g>
		</g>
	</g>
	<g>
		<g>
			<g>
				<g>
					<path class="st1" d="M370.31,116.84c0,0.22-34.26,0.4-76.5,0.4c-42.26,0-76.51-0.18-76.51-0.4c0-0.22,34.25-0.4,76.51-0.4
						C336.05,116.44,370.31,116.62,370.31,116.84z"/>
				</g>
			</g>
		</g>
	</g>
	<g>
		<g>
			<g>
				<g>
					<path class="st1" d="M370.31,137.01c0,0.22-34.26,0.4-76.5,0.4c-42.26,0-76.51-0.18-76.51-0.4c0-0.22,34.25-0.4,76.51-0.4
						C336.05,136.61,370.31,136.79,370.31,137.01z"/>
				</g>
			</g>
		</g>
	</g>
</g>
<g>
	<path class="st4" d="M1167.54,671.38c0,0.21-232.23,0.39-518.64,0.39c-286.51,0-518.69-0.17-518.69-0.39
		c0-0.21,232.18-0.39,518.69-0.39C935.3,671,1167.54,671.17,1167.54,671.38z"/>
</g>
<g>
	<g>
		<g>
			<path class="st5" d="M1070.07,595.8c0,0-39.25-45.18-54.06-90.35c-14.81-45.18-7.78-39.99-7.78-39.99s20,43.88,35.18,65.08
				c15.18,21.2,42.21,52.3,42.21,52.3L1070.07,595.8z"/>
		</g>
		<g>
			<path class="st5" d="M1077.9,472.5c-1.27-2.21-4.64-1.06-4.26,1.45c2.39,15.87,7.57,53.11,7.36,77.26
				c-0.26,31.38,0.01,43.5,0.01,43.5h16.34c0,0-2.9-64.86-6.59-84.64C1088.17,496.21,1082.68,480.82,1077.9,472.5z"/>
		</g>
		<g>
			<path class="st5" d="M1086.8,589.44c0,0,10.28-21.62,13.45-48.78c1.35-11.55-1.05-27.16-4.62-47.99
				c-1.73-10.09-2.12-17.77-2.07-23.09c0.04-4.02,5.35-5.34,7.32-1.83c1.97,3.52,7.68,15.54,9.13,23.07
				c3.95,20.57,8.44,30.85,5.01,50.36c-3.43,19.51-16.08,49.57-16.08,49.57L1086.8,589.44z"/>
		</g>
		<g>
			<path class="st5" d="M1101.52,590.76c0,0,43.1-92.62,46.08-106.36c2.99-13.74,13.14-45.4,14.34-43.61
				c1.2,1.79,2.99,18.52-4.78,37.64c-7.77,19.12-40.93,115.15-40.93,115.15h-14.72"/>
		</g>
		<g>
			<g>
				<path class="st4" d="M1082.09,586.62c-0.02,0.03-0.43-0.26-1.21-0.83c-0.76-0.58-1.93-1.39-3.34-2.55
					c-2.87-2.25-6.89-5.68-11.58-10.22c-9.41-9.03-21.12-22.96-31.27-40.13c-10.17-17.16-17.01-33.95-21.34-46.23
					c-2.17-6.15-3.75-11.19-4.77-14.68c-0.53-1.74-0.89-3.11-1.14-4.04c-0.25-0.93-0.36-1.42-0.33-1.43
					c0.03-0.01,0.21,0.46,0.51,1.37c0.33,0.99,0.76,2.32,1.31,3.99c1.13,3.46,2.8,8.46,5.04,14.57
					c4.48,12.21,11.39,28.89,21.52,45.98c10.11,17.09,21.67,31.02,30.93,40.14c4.61,4.58,8.56,8.08,11.35,10.41
					c1.37,1.19,2.5,2.05,3.23,2.68C1081.73,586.25,1082.1,586.59,1082.09,586.62z"/>
			</g>
		</g>
		<g>
			<g>
				<path class="st4" d="M1086.8,542.18c-0.06,0-0.2-0.96-0.39-2.72c-0.21-1.92-0.47-4.42-0.79-7.42
					c-0.68-6.27-1.75-14.91-3.27-24.4c-1.53-9.49-3.23-18.03-4.54-24.2c-0.64-2.96-1.17-5.41-1.57-7.3
					c-0.37-1.72-0.55-2.69-0.48-2.7c0.06-0.02,0.35,0.92,0.83,2.62c0.48,1.7,1.12,4.17,1.86,7.24c1.48,6.14,3.28,14.68,4.82,24.2
					c1.53,9.51,2.49,18.19,3.01,24.48c0.26,3.15,0.43,5.7,0.5,7.46C1086.85,541.2,1086.86,542.18,1086.8,542.18z"/>
			</g>
		</g>
		<g>
			<g>
				<path class="st4" d="M1096.9,467.03c0.03-0.01,0.2,0.39,0.51,1.18c0.33,0.87,0.76,2.01,1.29,3.44c0.57,1.49,1.23,3.33,1.85,5.51
					c0.64,2.18,1.47,4.63,2.1,7.42c0.34,1.39,0.7,2.84,1.07,4.36c0.36,1.52,0.62,3.12,0.95,4.77c0.7,3.29,1.14,6.85,1.66,10.6
					c0.84,7.51,1.3,15.82,1.03,24.54c-0.35,8.72-1.41,16.98-2.78,24.41c-0.79,3.7-1.48,7.22-2.42,10.45
					c-0.45,1.62-0.82,3.2-1.29,4.69c-0.48,1.48-0.94,2.91-1.38,4.27c-0.82,2.74-1.83,5.12-2.62,7.25c-0.78,2.13-1.56,3.92-2.24,5.37
					c-0.64,1.38-1.15,2.49-1.53,3.34c-0.36,0.76-0.56,1.15-0.59,1.14c-0.03-0.01,0.12-0.43,0.42-1.21c0.35-0.86,0.8-1.99,1.37-3.4
					c0.62-1.47,1.36-3.27,2.09-5.41c0.75-2.13,1.7-4.53,2.48-7.26c0.42-1.36,0.86-2.79,1.31-4.27c0.45-1.49,0.8-3.06,1.23-4.68
					c0.9-3.22,1.56-6.74,2.32-10.42c1.33-7.4,2.35-15.62,2.7-24.29c0.27-8.67-0.16-16.94-0.95-24.41c-0.5-3.73-0.9-7.28-1.57-10.56
					c-0.31-1.64-0.55-3.24-0.89-4.76c-0.35-1.51-0.68-2.96-1.01-4.35c-0.58-2.79-1.36-5.24-1.96-7.42c-0.57-2.19-1.18-4.04-1.7-5.55
					c-0.47-1.45-0.84-2.61-1.13-3.49C1096.98,467.47,1096.87,467.04,1096.9,467.03z"/>
			</g>
		</g>
		<g>
			<g>
				<path class="st4" d="M1161.45,442.65c0.02,0,0,0.14-0.03,0.42c-0.05,0.33-0.11,0.72-0.19,1.2c-0.19,1.05-0.43,2.62-0.85,4.61
					c-0.83,3.98-2.22,9.72-4.37,16.67c-2.15,6.96-5.09,15.12-8.58,24.08c-3.48,8.97-7.52,18.73-11.34,29.13
					c-3.89,10.38-6.88,20.52-9.69,29.71c-2.79,9.2-5.43,17.46-7.99,24.28c-2.53,6.83-4.97,12.21-6.8,15.84
					c-0.88,1.83-1.68,3.2-2.19,4.14c-0.24,0.42-0.44,0.77-0.6,1.06c-0.14,0.24-0.22,0.35-0.23,0.35c-0.01-0.01,0.04-0.14,0.15-0.39
					c0.14-0.3,0.31-0.66,0.52-1.1c0.46-0.97,1.2-2.36,2.03-4.21c1.74-3.67,4.07-9.07,6.52-15.91c2.47-6.83,5.04-15.09,7.79-24.3
					c2.77-9.2,5.74-19.37,9.64-29.78c3.84-10.42,7.9-20.18,11.42-29.13c3.53-8.94,6.53-17.05,8.75-23.96
					c2.23-6.91,3.71-12.6,4.65-16.55c0.47-1.98,0.77-3.53,1.02-4.57c0.11-0.48,0.2-0.87,0.28-1.19
					C1161.39,442.79,1161.43,442.65,1161.45,442.65z"/>
			</g>
		</g>
		<g>
			<g>
				<path class="st5" d="M1028.55,422.2c-2.72-2.7-7.23,0.12-6.11,3.78c1.14,3.71,2.87,8.51,5.42,13.93
					c5.92,12.59,23.33,57.77,31.48,82.58c8.15,24.81,19.63,71.1,19.63,71.1l17.4-2.82c0,0-15.92-76.05-31.47-103.45
					C1052.39,465.29,1039.9,433.47,1028.55,422.2z"/>
			</g>
			<g>
				<g>
					<path class="st4" d="M1064.1,538c0.06-0.02,0.38,0.72,0.9,2.08c0.51,1.36,1.22,3.36,2.01,5.84c1.6,4.96,3.56,11.89,5.54,19.59
						c1.97,7.7,3.61,14.71,4.76,19.79c0.52,2.4,0.96,4.42,1.31,6.03c0.29,1.43,0.42,2.22,0.36,2.24c-0.06,0.01-0.31-0.75-0.71-2.16
						c-0.42-1.59-0.96-3.58-1.59-5.96c-1.33-5.23-3.08-12.11-5.01-19.72c-1.97-7.69-3.83-14.64-5.27-19.63
						c-0.69-2.36-1.26-4.34-1.72-5.92C1064.24,538.8,1064.04,538.02,1064.1,538z"/>
				</g>
			</g>
			<g>
				<g>
					<path class="st4" d="M1087.7,592.17c-0.02,0-0.05-0.16-0.1-0.46c-0.05-0.36-0.12-0.81-0.2-1.37c-0.18-1.2-0.35-2.99-0.71-5.27
						c-0.64-4.57-1.78-11.16-3.65-19.19c-1.86-8.04-4.57-17.49-8.14-27.79c-3.57-10.31-8.04-21.44-13.12-32.97
						c-10.23-23.02-20.46-43.44-27.18-58.54c-3.4-7.53-6.03-13.68-7.76-17.97c-0.88-2.13-1.51-3.81-1.96-4.95
						c-0.2-0.53-0.36-0.95-0.48-1.3c-0.1-0.29-0.15-0.45-0.14-0.45c0.02-0.01,0.09,0.14,0.22,0.42c0.15,0.33,0.34,0.75,0.57,1.26
						c0.51,1.18,1.22,2.81,2.11,4.88c1.83,4.24,4.55,10.34,8.02,17.84c6.86,15.02,17.18,35.39,27.43,58.44
						c5.08,11.54,9.54,22.71,13.08,33.06c3.54,10.35,6.19,19.85,7.98,27.92c1.79,8.08,2.84,14.69,3.37,19.29
						c0.31,2.29,0.42,4.09,0.54,5.3c0.04,0.56,0.08,1.02,0.11,1.38C1087.72,592.01,1087.72,592.17,1087.7,592.17z"/>
				</g>
			</g>
			<g>
				<g>
					<path class="st4" d="M1096.36,590.76c-0.06,0.01-0.27-1.03-0.59-2.92c-0.35-2.04-0.8-4.74-1.35-8
						c-1.2-6.74-3.03-16.02-5.66-26.13c-2.61-10.11-5.54-19.11-7.8-25.57c-1.11-3.11-2.03-5.69-2.72-7.64
						c-0.65-1.8-0.98-2.81-0.93-2.83c0.06-0.02,0.5,0.94,1.26,2.7c0.75,1.77,1.8,4.34,3,7.55c2.42,6.42,5.46,15.42,8.08,25.56
						c2.64,10.14,4.37,19.47,5.41,26.25c0.5,3.39,0.87,6.14,1.07,8.05C1096.34,589.69,1096.42,590.75,1096.36,590.76z"/>
				</g>
			</g>
		</g>
	</g>
	<g>
		<g>
			<rect x="1064.16" y="588.26" class="st6" width="67.9" height="82.73"/>
		</g>
		<g class="st7">
			<rect x="1064.16" y="588.26" width="67.9" height="82.73"/>
		</g>
		<g>
			<rect x="1050.16" y="588.26" class="st6" width="60.24" height="82.73"/>
		</g>
	</g>
</g>
<g>
	<g>
		<path class="st5" d="M227.63,559.5c-11.57-7.41-27.6-7.55-38.86,0.32c-10.69,7.47-16.11,21.07-15.64,34.1
			c0.47,13.03,6.79,28.95,18.59,35.8l34.65-0.14c11.07-8.14,18.55-21.25,19.07-34.97C245.97,580.88,239.2,566.9,227.63,559.5z"/>
		<g>
			<g>
				<path class="st4" d="M210.57,630.97c-0.08,0-0.15-1.06-0.22-2.98c-0.06-2.13-0.14-4.86-0.23-8.13
					c-0.18-6.86-0.45-16.34-0.9-26.8c-0.46-10.46-1.03-19.93-1.45-26.78c-0.19-3.26-0.36-5.99-0.48-8.12
					c-0.1-1.92-0.12-2.98-0.04-2.99s0.24,1.04,0.47,2.95c0.24,1.91,0.52,4.67,0.84,8.09c0.63,6.84,1.32,16.31,1.78,26.79
					c0.46,10.47,0.61,19.97,0.58,26.84c-0.01,3.44-0.05,6.22-0.12,8.14C210.71,629.91,210.64,630.97,210.57,630.97z"/>
			</g>
		</g>
		<g>
			<g>
				<path class="st4" d="M176.62,590.96c-0.03,0.3-1.91,0.4-4.2,0.21c-2.3-0.19-4.14-0.59-4.11-0.89c0.02-0.3,1.91-0.4,4.21-0.21
					C174.81,590.26,176.65,590.66,176.62,590.96z"/>
			</g>
		</g>
		<g>
			<g>
				<path class="st4" d="M177.27,579.27c-0.12,0.28-1.75-0.17-3.63-1c-1.88-0.83-3.3-1.74-3.18-2.02c0.12-0.28,1.75,0.17,3.63,1
					C175.97,578.09,177.39,578.99,177.27,579.27z"/>
			</g>
		</g>
		<g>
			<g>
				<path class="st4" d="M183.29,570.59c-0.16,0.25-1.98-0.61-3.88-2.18c-1.9-1.57-3.09-3.2-2.87-3.41
					c0.23-0.21,1.73,1.03,3.57,2.55C181.94,569.08,183.45,570.33,183.29,570.59z"/>
			</g>
		</g>
		<g>
			<g>
				<path class="st4" d="M189.34,562.4c-0.28,0.12-1.15-1.24-1.95-3.05c-0.8-1.81-1.22-3.38-0.94-3.5c0.28-0.12,1.15,1.24,1.95,3.05
					C189.19,560.71,189.62,562.28,189.34,562.4z"/>
			</g>
		</g>
		<g>
			<g>
				<path class="st4" d="M198.83,556.59c-0.27,0.13-1.21-1.33-1.84-3.35c-0.63-2.02-0.68-3.75-0.38-3.8
					c0.31-0.05,0.83,1.53,1.44,3.47C198.65,554.86,199.11,556.46,198.83,556.59z"/>
			</g>
		</g>
		<g>
			<g>
				<path class="st4" d="M214.67,550.04c0.29,0.1,0.11,1.34-0.39,2.78c-0.51,1.43-1.15,2.51-1.44,2.41
					c-0.29-0.1-0.11-1.34,0.39-2.78C213.74,551.02,214.38,549.94,214.67,550.04z"/>
			</g>
		</g>
		<g>
			<g>
				<path class="st4" d="M226.42,555.09c0.21,0.22-0.55,1.26-1.68,2.31c-1.14,1.05-2.23,1.72-2.43,1.5
					c-0.21-0.22,0.55-1.26,1.68-2.31C225.12,555.53,226.21,554.86,226.42,555.09z"/>
			</g>
		</g>
		<g>
			<g>
				<path class="st4" d="M236.76,561.77c0.17,0.25-0.75,1.18-2.05,2.06c-1.31,0.88-2.5,1.4-2.67,1.14
					c-0.17-0.25,0.75-1.17,2.05-2.06C235.39,562.02,236.59,561.51,236.76,561.77z"/>
			</g>
		</g>
		<g>
			<g>
				<path class="st4" d="M244.11,571.73c0.12,0.28-1.33,1.17-3.24,1.98c-1.91,0.81-3.55,1.24-3.67,0.96
					c-0.12-0.28,1.33-1.17,3.24-1.98C242.34,571.88,243.99,571.45,244.11,571.73z"/>
			</g>
		</g>
		<g>
			<g>
				<path class="st4" d="M247,582.59c0.04,0.3-1.44,0.74-3.29,0.97c-1.86,0.23-3.39,0.17-3.43-0.13c-0.04-0.3,1.44-0.74,3.29-0.97
					C245.43,582.23,246.96,582.28,247,582.59z"/>
			</g>
		</g>
		<g>
			<g>
				<path class="st4" d="M248.5,595.96c-0.12,0.28-1.69-0.13-3.51-0.92c-1.82-0.79-3.19-1.66-3.07-1.94
					c0.12-0.28,1.69,0.13,3.51,0.92C247.25,594.81,248.63,595.68,248.5,595.96z"/>
			</g>
		</g>
		<g>
			<g>
				<path class="st4" d="M247.18,607.43c-0.1,0.28-2.08-0.19-4.16-1.56c-2.08-1.35-3.31-2.98-3.09-3.18
					c0.22-0.22,1.73,0.98,3.7,2.26C245.59,606.24,247.29,607.14,247.18,607.43z"/>
			</g>
		</g>
		<g>
			<g>
				<path class="st4" d="M241.21,617.88c-0.18,0.24-1.76-0.69-3.28-2.33c-1.52-1.63-2.33-3.28-2.08-3.44
					c0.26-0.18,1.43,1.13,2.89,2.69C240.19,616.36,241.4,617.63,241.21,617.88z"/>
			</g>
		</g>
		<g>
			<g>
				<path class="st4" d="M184.48,619.1c0.14,0.27-1.52,1.41-3.71,2.55c-2.19,1.14-4.08,1.84-4.22,1.57
					c-0.14-0.27,1.52-1.41,3.71-2.55C182.45,619.54,184.34,618.83,184.48,619.1z"/>
			</g>
		</g>
		<g>
			<g>
				<path class="st4" d="M179.3,609.66c0.13,0.28-1.2,1.15-2.97,1.95c-1.77,0.8-3.3,1.23-3.43,0.95c-0.13-0.28,1.2-1.15,2.97-1.95
					C177.64,609.8,179.17,609.38,179.3,609.66z"/>
			</g>
		</g>
		<g>
			<g>
				<path class="st4" d="M175.49,601.29c0.04,0.3-1.59,0.78-3.66,1.08c-2.06,0.29-3.77,0.28-3.81-0.02
					c-0.04-0.3,1.59-0.78,3.66-1.08C173.74,600.98,175.45,600.99,175.49,601.29z"/>
			</g>
		</g>
		<g>
			<g>
				<path class="st4" d="M187.98,596.68c0.09,0.28-1.51,1.03-3.64,1.27c-2.13,0.24-3.85-0.13-3.83-0.42
					c0.02-0.31,1.69-0.44,3.71-0.68C186.24,596.62,187.89,596.38,187.98,596.68z"/>
			</g>
		</g>
		<g>
			<g>
				<path class="st4" d="M198.36,586.35c0.09,0.29-1.18,0.93-2.9,1.09c-1.71,0.17-3.09-0.21-3.05-0.51
					c0.03-0.31,1.35-0.43,2.95-0.59C196.95,586.19,198.27,586.05,198.36,586.35z"/>
			</g>
		</g>
		<g>
			<g>
				<path class="st4" d="M200.35,578.08c-0.1,0.29-1.48,0.07-3.07-0.48c-1.6-0.55-2.81-1.23-2.71-1.52c0.1-0.29,1.48-0.07,3.07,0.48
					C199.23,577.11,200.44,577.79,200.35,578.08z"/>
			</g>
		</g>
		<g>
			<g>
				<path class="st4" d="M204.15,569.71c-0.21,0.21-1.16-0.41-1.83-1.58c-0.68-1.17-0.74-2.3-0.45-2.38
					c0.3-0.09,0.81,0.79,1.41,1.83C203.87,568.62,204.37,569.5,204.15,569.71z"/>
			</g>
		</g>
		<g>
			<g>
				<path class="st4" d="M199.56,603.96c0.07,0.3-1.12,0.84-2.66,1.22c-0.89,0.22-1.7,0.33-2.24,0.33l-0.22-0.65
					c0.4-0.07,0.66-0.06,0.71,0.06c0.05,0.12-0.11,0.32-0.43,0.56l-0.22-0.65c0.47-0.25,1.25-0.52,2.14-0.74
					C198.18,603.73,199.49,603.67,199.56,603.96z"/>
			</g>
		</g>
		<g>
			<g>
				<path class="st4" d="M201.7,618.63c0.11,0.28-1.41,1.15-3.39,1.93c-1.99,0.78-3.69,1.18-3.8,0.9c-0.11-0.28,1.41-1.15,3.39-1.93
					C199.89,618.75,201.59,618.34,201.7,618.63z"/>
			</g>
		</g>
		<g>
			<g>
				<path class="st4" d="M189.98,612.11c0.1,0.29-0.92,0.9-2.26,1.35c-1.35,0.46-2.52,0.6-2.62,0.31c-0.1-0.29,0.91-0.9,2.26-1.35
					C188.71,611.96,189.88,611.82,189.98,612.11z"/>
			</g>
		</g>
		<g>
			<g>
				<path class="st4" d="M190.87,582.26c-0.07,0.29-1.83,0.12-3.87-0.61c-2.04-0.72-3.52-1.7-3.39-1.97
					c0.13-0.28,1.78,0.23,3.76,0.92C189.35,581.31,190.95,581.96,190.87,582.26z"/>
			</g>
		</g>
		<g>
			<g>
				<path class="st4" d="M219.24,579.01c0.17,0.26-0.83,1.21-2.22,2.13c-1.39,0.92-2.66,1.46-2.83,1.2
					c-0.17-0.25,0.83-1.21,2.22-2.13C217.81,579.3,219.08,578.76,219.24,579.01z"/>
			</g>
		</g>
		<g>
			<g>
				<path class="st4" d="M220.79,593.74c0.06,0.3-0.98,0.77-2.33,1.05c-1.35,0.28-2.5,0.26-2.56-0.03c-0.06-0.3,0.98-0.77,2.33-1.05
					C219.58,593.43,220.73,593.44,220.79,593.74z"/>
			</g>
		</g>
		<g>
			<g>
				<path class="st4" d="M222.58,610.3c-0.13,0.28-1.63-0.15-3.36-0.95c-1.73-0.8-3.02-1.67-2.89-1.95
					c0.13-0.28,1.63,0.15,3.36,0.95C221.41,609.15,222.71,610.03,222.58,610.3z"/>
			</g>
		</g>
		<g>
			<g>
				<path class="st4" d="M218.79,626.43c-0.24,0.19-1.21-0.6-2.18-1.78c-0.97-1.18-1.56-2.29-1.33-2.49
					c0.24-0.19,1.21,0.6,2.18,1.78C218.43,625.12,219.02,626.23,218.79,626.43z"/>
			</g>
		</g>
		<g>
			<g>
				<path class="st4" d="M218.01,568.17c0.19,0.24-0.46,1.05-1.56,1.6c-1.1,0.56-2.14,0.59-2.22,0.3c-0.08-0.3,0.73-0.78,1.72-1.29
					C216.95,568.28,217.82,567.92,218.01,568.17z"/>
			</g>
		</g>
		<g>
			<g>
				<path class="st4" d="M231.91,583.03c0.1,0.28-1.18,0.99-2.94,1.23c-1.76,0.25-3.19-0.08-3.17-0.38
					c0.02-0.31,1.38-0.48,3.02-0.72C230.46,582.94,231.81,582.73,231.91,583.03z"/>
			</g>
		</g>
		<g>
			<g>
				<path class="st4" d="M229.14,569.69c0.14,0.27-1.14,1.18-2.96,1.76c-1.81,0.58-3.38,0.58-3.43,0.29
					c-0.05-0.31,1.37-0.78,3.09-1.34C227.57,569.84,229.01,569.41,229.14,569.69z"/>
			</g>
		</g>
		<g>
			<g>
				<path class="st4" d="M234.95,603.68c0,0.3-2.19,0.49-4.82,0.01c-2.64-0.47-4.61-1.42-4.51-1.7c0.1-0.3,2.17,0.16,4.71,0.61
					C232.86,603.06,234.96,603.36,234.95,603.68z"/>
			</g>
		</g>
		<g>
			<g>
				<path class="st4" d="M229.78,623.05c-0.18,0.24-1.79-0.71-3.4-2.33c-1.61-1.61-2.55-3.22-2.31-3.41
					c0.25-0.19,1.54,1.07,3.09,2.63C228.72,621.51,229.97,622.8,229.78,623.05z"/>
			</g>
		</g>
		<g>
			<g>
				<path class="st4" d="M207.07,553.93c0.16,0.24-4.41,2.09-9.7,7.66c-5.28,5.45-10.74,15.07-12.08,26.7
					c-0.64,5.78-0.09,11.37,0.73,16.36c0.86,5,2.01,9.43,3.06,13.13c1.06,3.7,2.04,6.66,2.69,8.71c0.66,2.05,1.01,3.19,0.93,3.22
					c-0.07,0.02-0.55-1.07-1.34-3.08c-0.78-2.01-1.87-4.94-3.03-8.63c-1.16-3.69-2.39-8.14-3.32-13.18
					c-0.88-5.04-1.48-10.72-0.82-16.66c1.37-11.9,7.08-21.7,12.62-27.12c2.76-2.75,5.35-4.59,7.23-5.65
					c0.92-0.58,1.71-0.89,2.21-1.15C206.77,554,207.05,553.89,207.07,553.93z"/>
			</g>
		</g>
		<g>
			<g>
				<path class="st4" d="M222.15,630.43c-0.24-0.12,2.49-4.32,4.97-11.88c2.56-7.47,4.68-18.54,2.97-30.55
					c-0.8-5.99-2.53-11.54-4.71-16.29c-2.26-4.68-5.18-8.51-8.03-11.19c-2.95-2.61-5.85-4.11-7.87-4.97
					c-2.05-0.85-3.27-1.05-3.25-1.15c0.01-0.04,0.32-0.02,0.9,0.07c0.58,0.11,1.44,0.3,2.51,0.67c2.11,0.76,5.12,2.17,8.23,4.79
					c3.03,2.71,6.05,6.53,8.44,11.34c2.28,4.83,4.07,10.47,4.89,16.58c1.74,12.24-0.55,23.47-3.33,30.96
					c-0.63,1.91-1.43,3.55-2.03,5.02c-0.71,1.43-1.3,2.67-1.84,3.65C222.87,629.41,222.22,630.46,222.15,630.43z"/>
			</g>
		</g>
	</g>
	<g>
		<polygon class="st6" points="179.3,627.81 240.28,627.81 240.66,640.01 179.3,640.01 		"/>
	</g>
	<g>
		<polygon class="st6" points="184.48,633.91 187.98,671.17 232.56,671.17 236.15,634.32 		"/>
	</g>
	<g>
		<g>
			<path class="st4" d="M240.66,640.16c0,0.31-13.73,0.55-30.67,0.55c-16.94,0-30.67-0.25-30.67-0.55c0-0.31,13.73-0.55,30.67-0.55
				C226.92,639.61,240.66,639.86,240.66,640.16z"/>
		</g>
	</g>
	<g>
		<g>
			<path class="st4" d="M234.46,651.51c0.06,0.04-0.35,0.89-1.31,2.33c-0.96,1.43-2.48,3.43-4.73,5.58l-0.28,0.27l-0.28-0.29
				c-2.94-3.08-6.97-6.86-11.95-10.46l0.67-0.03c-1.7,1.49-3.48,3.05-5.3,4.65c-2.17,1.89-4.26,3.71-6.26,5.45l-0.35,0.3l-0.35-0.29
				c-3.8-3.19-7.25-6.1-10.18-8.56l0.59-0.06c-2.1,2.57-3.87,4.72-5.27,6.43c-1.27,1.5-2,2.31-2.07,2.26
				c-0.07-0.05,0.55-0.96,1.7-2.55c1.32-1.77,2.99-4,4.98-6.65l0.25-0.34l0.34,0.28c2.97,2.41,6.48,5.25,10.33,8.38l-0.69,0.01
				c1.99-1.75,4.08-3.59,6.24-5.48c1.83-1.59,3.61-3.14,5.32-4.63l0.33-0.29l0.35,0.26c5.02,3.69,9.04,7.59,11.89,10.8l-0.56-0.02
				C232.41,654.74,234.28,651.38,234.46,651.51z"/>
		</g>
	</g>
</g>
<g>
	<g>
		<g>
			<g>
				<g>
					<g>
						<g>
							<g>
								<g>
									<g>
										<g>
											<path class="st5" d="M974.17,660.95H314.66c-8.05,0-14.57-6.52-14.57-14.57V220.12c0-8.05,6.52-14.57,14.57-14.57h659.51
												c8.05,0,14.57,6.52,14.57,14.57v426.26C988.74,654.42,982.22,660.95,974.17,660.95z"/>
										</g>
									</g>
								</g>
							</g>
							<g>
								<g>
									<g>
										<g>
											<path class="st5" d="M1005.85,671.38h-710.5c-9.83,0-17.8-7.97-17.8-17.8v-22.05h746.09v22.05
												C1023.64,663.41,1015.67,671.38,1005.85,671.38z"/>
										</g>
									</g>
								</g>
							</g>
							<g>
								<g>
									<g>
										<g>
											<polygon class="st4" points="576.53,627.26 585.79,641.99 716.07,641.99 724.66,627.26 											"/>
										</g>
									</g>
								</g>
							</g>
						</g>
						<g>
							<g>
								<g>
									<g>
										<path class="st4" d="M982.82,627.26c0,0.25-152.85,0.45-341.35,0.45c-188.57,0-341.38-0.2-341.38-0.45
											c0-0.25,152.81-0.45,341.38-0.45C829.97,626.82,982.82,627.02,982.82,627.26z"/>
									</g>
								</g>
							</g>
						</g>
					</g>
				</g>
			</g>
		</g>
		<g>
			<g>
				<g>
					<g>
						<g>
							<g>
								<g>
									<g>
										<path class="st2" d="M963.05,615.22H323.09c-1.81,0-3.27-1.47-3.27-3.27V235.01c0-1.81,1.47-3.27,3.27-3.27h639.96
											c1.81,0,3.27,1.47,3.27,3.27v376.94C966.32,613.76,964.86,615.22,963.05,615.22z"/>
									</g>
								</g>
							</g>
						</g>
					</g>
					<g>
						<g>
							<g>
								<g>
									<g>
										<polygon class="st8" points="965.63,615.78 319.12,615.78 319.82,260.4 965.63,260.4 										"/>
									</g>
								</g>
							</g>
						</g>
					</g>
					<g>
						<g>
							<g>
								<g>
									<g>
										<path class="st4" d="M372.84,246.55c0,2.85-2.31,5.16-5.16,5.16c-2.85,0-5.16-2.31-5.16-5.16c0-2.85,2.31-5.16,5.16-5.16
											C370.53,241.39,372.84,243.7,372.84,246.55z"/>
									</g>
								</g>
							</g>
						</g>
					</g>
					<g>
						<g>
							<g>
								<g>
									<g>
										<path class="st4" d="M341.55,246.55c0,2.85-2.31,5.16-5.16,5.16c-2.85,0-5.16-2.31-5.16-5.16c0-2.85,2.31-5.16,5.16-5.16
											C339.24,241.39,341.55,243.7,341.55,246.55z"/>
									</g>
								</g>
							</g>
						</g>
					</g>
					<g>
						<g>
							<g>
								<g>
									<g>
										<path class="st4" d="M356.57,246.55c0,2.85-2.31,5.16-5.16,5.16c-2.85,0-5.16-2.31-5.16-5.16c0-2.85,2.31-5.16,5.16-5.16
											C354.26,241.39,356.57,243.7,356.57,246.55z"/>
									</g>
								</g>
							</g>
						</g>
					</g>
				</g>
			</g>
		</g>
		<rect x="319.12" y="581.47" class="st4" width="647.2" height="34.32"/>
		<g>
			<g>
				<path class="st8" d="M343.58,602.6v1.1h-5.15v-0.87l2.78-2.64c0.68-0.65,0.8-1.06,0.8-1.45c0-0.64-0.44-1.01-1.3-1.01
					c-0.68,0-1.25,0.23-1.64,0.73l-0.91-0.7c0.54-0.73,1.51-1.16,2.66-1.16c1.52,0,2.5,0.77,2.5,2.01c0,0.68-0.19,1.3-1.16,2.21
					l-1.87,1.78H343.58z"/>
				<path class="st8" d="M344.28,599.13c0-0.5,0.37-0.83,0.82-0.83c0.45,0,0.82,0.33,0.82,0.83c0,0.48-0.37,0.83-0.82,0.83
					C344.65,599.96,344.28,599.61,344.28,599.13z M344.28,602.94c0-0.5,0.37-0.83,0.82-0.83c0.45,0,0.82,0.33,0.82,0.83
					c0,0.48-0.37,0.83-0.82,0.83C344.65,603.77,344.28,603.42,344.28,602.94z"/>
				<path class="st8" d="M349.17,596.7v6.99h-1.3v-5.9h-1.48v-1.09H349.17z"/>
				<path class="st8" d="M356.79,602.11h-1.24v1.59h-1.26v-1.59h-3.84v-0.9l3.45-4.5h1.39l-3.25,4.31h2.29v-1.41h1.22v1.41h1.24
					V602.11z"/>
			</g>
			<g>
				<rect x="368.21" y="599.31" class="st8" width="530.47" height="2.42"/>
			</g>
			<g>
				<rect x="367.81" y="596.71" class="st6" width="165.77" height="6.45"/>
			</g>
			<g>
				<path class="st6" d="M538.94,600.52c0,4.46-3.61,8.07-8.07,8.07c-4.46,0-8.07-3.61-8.07-8.07c0-4.46,3.61-8.07,8.07-8.07
					C535.32,592.45,538.94,596.07,538.94,600.52z"/>
			</g>
			<g>
				<path class="st8" d="M912.04,600.44c0,1.39-1.13,2.27-2.56,2.27c-1.91,0-3.03-1.23-3.03-3.48c0-2.4,1.4-3.72,3.43-3.72
					c0.7,0,1.37,0.15,1.84,0.45l-0.48,0.98c-0.38-0.25-0.84-0.34-1.33-0.34c-1.32,0-2.15,0.82-2.15,2.41v0.01
					c0.42-0.49,1.09-0.73,1.87-0.73C911.01,598.3,912.04,599.14,912.04,600.44z M910.78,600.5c0-0.73-0.55-1.19-1.4-1.19
					c-0.84,0-1.42,0.51-1.42,1.2c0,0.66,0.52,1.18,1.45,1.18C910.22,601.69,910.78,601.23,910.78,600.5z"/>
				<path class="st8" d="M912.67,598.05c0-0.5,0.37-0.83,0.82-0.83c0.45,0,0.82,0.33,0.82,0.83c0,0.48-0.37,0.83-0.82,0.83
					C913.04,598.88,912.67,598.53,912.67,598.05z M912.67,601.85c0-0.5,0.37-0.83,0.82-0.83c0.45,0,0.82,0.33,0.82,0.83
					c0,0.48-0.37,0.83-0.82,0.83C913.04,602.68,912.67,602.33,912.67,601.85z"/>
				<path class="st8" d="M915.14,599.12c0-2.3,1.26-3.6,2.92-3.6c1.67,0,2.93,1.3,2.93,3.6c0,2.3-1.26,3.6-2.93,3.6
					C916.4,602.71,915.14,601.41,915.14,599.12z M919.68,599.12c0-1.69-0.66-2.47-1.62-2.47c-0.95,0-1.61,0.78-1.61,2.47
					c0,1.69,0.66,2.47,1.61,2.47C919.02,601.58,919.68,600.81,919.68,599.12z"/>
				<path class="st8" d="M921.86,599.12c0-2.3,1.26-3.6,2.92-3.6c1.67,0,2.93,1.3,2.93,3.6c0,2.3-1.26,3.6-2.93,3.6
					C923.12,602.71,921.86,601.41,921.86,599.12z M926.39,599.12c0-1.69-0.66-2.47-1.62-2.47c-0.95,0-1.61,0.78-1.61,2.47
					c0,1.69,0.66,2.47,1.61,2.47C925.73,601.58,926.39,600.81,926.39,599.12z"/>
			</g>
			<g>
				<polygon class="st8" points="939,598.68 936.58,598.68 936.58,591.71 943.54,591.71 943.54,594.13 939,594.13 				"/>
			</g>
			<g>
				<polygon class="st8" points="943.54,607.78 936.57,607.78 936.57,600.82 938.99,600.82 938.99,605.36 943.54,605.36 				"/>
			</g>
			<g>
				<polygon class="st8" points="954.65,607.78 947.69,607.78 947.69,605.36 952.23,605.36 952.23,600.81 954.65,600.81 				"/>
			</g>
			<g>
				<polygon class="st8" points="954.65,598.67 952.23,598.67 952.23,594.13 947.68,594.13 947.68,591.71 954.65,591.71 				"/>
			</g>
		</g>
	</g>
	<g>
		<g>
			<polygon class="st2" points="407.78,281.53 369.68,281.53 350.62,314.53 369.68,347.53 407.78,347.53 426.83,314.53 			"/>
			<g>
				<g>
					<g>
						<path class="st4" d="M372.79,320.99c-1.7-1.88-3.42-3.79-4.66-6.01c-1.24-2.22-1.98-4.8-1.57-7.31
							c0.24-1.47,0.86-2.86,0.96-4.34c0.14-2.04-0.72-4.17,0-6.08c1.13-2.99,5.15-3.45,7.59-5.51c1.9-1.61,2.82-4.22,4.91-5.57
							c1.82-1.18,4.17-1.16,6.32-0.85c2.15,0.3,4.32,0.85,6.47,0.56c1.54-0.21,2.98-0.83,4.49-1.2c1.5-0.37,3.18-0.47,4.52,0.31
							c1.34,0.78,2.09,2.68,1.21,3.96c2.5-1.15,5.67,0.79,6.35,3.46c0.68,2.66-0.68,5.54-2.8,7.3c-2.12,1.76-4.85,2.57-7.55,3.08
							c-7.65,1.44-15.94,0.63-22.53-3.51"/>
					</g>
					<g>
						<g>
							<g>
								<g>
									<g>
										<g>
											<g>
												<path class="st9" d="M408.12,329.13c-0.26-4.72-1.58-14.41-2.88-23.16c-1.4-9.41-9.78-16.17-19.28-15.54l-0.94,0.06
													c-10.13,1.27-14.71,10.59-13.15,20.68l2.97,36.35h24.72c0,0-0.58-6.38-0.59-6.44
													C398.97,341.09,408.65,338.92,408.12,329.13z"/>
												<g>
													<g>
														<g>
															<g>
																<g>
																	<g>
																		<g>
																			<g>
																				<g>
																					<g>
																						<path class="st10" d="M398.98,340.95c0,0-6.14,0.92-12.99-2.77c0,0,3.48,6.83,13.18,5.3L398.98,340.95z"/>
																					</g>
																				</g>
																			</g>
																		</g>
																	</g>
																</g>
															</g>
														</g>
													</g>
												</g>
											</g>
										</g>
									</g>
									<g>
										<g>
											<g>
												<g>
													<g>
														<g>
															<g>
																<g>
																	<g>
																		<g>
																			<g>
																				<g>
																					<g>
																						<g>
																							<g>
																								<g>
																									<path class="st4" d="M402.09,314.36c0.08,0.74-0.49,1.41-1.25,1.5c-0.77,0.09-1.45-0.43-1.52-1.16
																										c-0.08-0.74,0.48-1.41,1.25-1.5C401.33,313.11,402.02,313.63,402.09,314.36z"/>
																								</g>
																							</g>
																						</g>
																					</g>
																				</g>
																			</g>
																		</g>
																	</g>
																</g>
															</g>
															<g>
																<g>
																	<g>
																		<g>
																			<g>
																				<g>
																					<g>
																						<g>
																							<g>
																								<g>
																									<g>
																										<path class="st4" d="M403.46,310.89c-0.16,0.19-1.27-0.52-2.77-0.41c-1.5,0.08-2.55,0.93-2.73,0.76
																											c-0.09-0.08,0.07-0.42,0.53-0.8c0.45-0.38,1.23-0.77,2.17-0.83c0.94-0.06,1.75,0.23,2.22,0.56
																											C403.36,310.49,403.54,310.81,403.46,310.89z"/>
																									</g>
																								</g>
																							</g>
																						</g>
																					</g>
																				</g>
																			</g>
																		</g>
																	</g>
																</g>
															</g>
														</g>
														<g>
															<g>
																<g>
																	<g>
																		<g>
																			<g>
																				<g>
																					<g>
																						<g>
																							<g>
																								<g>
																									<path class="st4" d="M387.9,315.38c0.08,0.74-0.49,1.41-1.25,1.5c-0.77,0.09-1.45-0.43-1.52-1.16
																										c-0.08-0.74,0.49-1.41,1.25-1.5C387.14,314.12,387.83,314.64,387.9,315.38z"/>
																								</g>
																							</g>
																						</g>
																					</g>
																				</g>
																			</g>
																		</g>
																	</g>
																</g>
															</g>
															<g>
																<g>
																	<g>
																		<g>
																			<g>
																				<g>
																					<g>
																						<g>
																							<g>
																								<g>
																									<g>
																										<path class="st4" d="M388.71,312.16c-0.16,0.19-1.27-0.52-2.77-0.41c-1.5,0.08-2.55,0.93-2.73,0.76
																											c-0.09-0.08,0.07-0.42,0.53-0.8c0.45-0.38,1.23-0.77,2.17-0.83c0.94-0.06,1.75,0.23,2.22,0.56
																											C388.61,311.76,388.79,312.08,388.71,312.16z"/>
																									</g>
																								</g>
																							</g>
																						</g>
																					</g>
																				</g>
																			</g>
																		</g>
																	</g>
																</g>
															</g>
														</g>
														<g>
															<g>
																<g>
																	<g>
																		<g>
																			<g>
																				<g>
																					<g>
																						<g>
																							<g>
																								<g>
																									<path class="st4" d="M394.91,322.94c-0.01-0.08,0.91-0.31,2.41-0.6c0.38-0.07,0.74-0.17,0.79-0.43
																										c0.07-0.28-0.12-0.69-0.33-1.12c-0.42-0.9-0.87-1.85-1.33-2.84c-1.85-4.05-3.22-7.4-3.06-7.47
																										c0.16-0.07,1.8,3.15,3.65,7.21c0.45,1,0.88,1.95,1.28,2.87c0.17,0.43,0.46,0.9,0.3,1.49
																										c-0.08,0.29-0.35,0.52-0.59,0.6c-0.24,0.09-0.46,0.11-0.65,0.13
																										C395.86,322.95,394.92,323.02,394.91,322.94z"/>
																								</g>
																							</g>
																						</g>
																					</g>
																				</g>
																			</g>
																		</g>
																	</g>
																</g>
															</g>
														</g>
													</g>
												</g>
											</g>
											<g>
												<g>
													<g>
														<g>
															<g>
																<g>
																	<g>
																		<g>
																			<g>
																				<g>
																					<path class="st4" d="M388.7,306.25c-0.12,0.42-1.63,0.33-3.38,0.66c-1.76,0.3-3.14,0.91-3.4,0.56
																						c-0.12-0.17,0.11-0.57,0.65-1c0.54-0.43,1.43-0.87,2.48-1.06c1.05-0.19,2.03-0.08,2.69,0.14
																						C388.41,305.75,388.76,306.05,388.7,306.25z"/>
																				</g>
																			</g>
																		</g>
																	</g>
																</g>
															</g>
														</g>
													</g>
												</g>
											</g>
											<g>
												<g>
													<g>
														<g>
															<g>
																<g>
																	<g>
																		<g>
																			<g>
																				<g>
																					<path class="st4" d="M402.61,306.58c-0.24,0.36-1.3,0.07-2.55,0.14c-1.25,0.02-2.28,0.38-2.55,0.04
																						c-0.12-0.17,0.02-0.52,0.46-0.87c0.43-0.35,1.17-0.67,2.03-0.7c0.86-0.03,1.62,0.23,2.07,0.55
																						C402.55,306.07,402.72,306.41,402.61,306.58z"/>
																				</g>
																			</g>
																		</g>
																	</g>
																</g>
															</g>
														</g>
													</g>
												</g>
											</g>
										</g>
									</g>
								</g>
							</g>
						</g>
						<g>
							<g>
								<g>
									<g>
										<g>
											<g>
												<g>
													<g>
														<g>
															<g>
																<g>
																	<path class="st9" d="M373.15,318.37c-0.17-0.06-6.85-1.54-6.19,5.13c0.66,6.67,7.89,4.49,7.88,4.3
																		C374.83,327.61,373.15,318.37,373.15,318.37z"/>
																</g>
															</g>
														</g>
													</g>
												</g>
											</g>
										</g>
									</g>
								</g>
							</g>
							<g>
								<g>
									<g>
										<g>
											<g>
												<g>
													<g>
														<g>
															<g>
																<g>
																	<g>
																		<path class="st10" d="M371.88,325.61c-0.03-0.02-0.11,0.09-0.3,0.2c-0.18,0.11-0.51,0.2-0.87,0.1
																			c-0.73-0.19-1.43-1.25-1.59-2.45c-0.08-0.61-0.01-1.2,0.16-1.7c0.16-0.51,0.44-0.88,0.79-0.98
																			c0.34-0.12,0.62,0.07,0.72,0.25c0.11,0.18,0.08,0.31,0.12,0.32c0.02,0.01,0.13-0.13,0.05-0.4
																			c-0.04-0.13-0.13-0.28-0.3-0.39c-0.17-0.11-0.41-0.16-0.66-0.11c-0.51,0.09-0.93,0.61-1.11,1.15
																			c-0.21,0.55-0.31,1.22-0.22,1.9c0.18,1.34,0.99,2.53,1.98,2.71c0.48,0.08,0.86-0.1,1.04-0.28
																			C371.89,325.77,371.91,325.62,371.88,325.61z"/>
																	</g>
																</g>
															</g>
														</g>
													</g>
												</g>
											</g>
										</g>
									</g>
								</g>
							</g>
						</g>
						<g>
							<g>
								<g>
									<path class="st4" d="M404.74,296.85c-0.46,2.65-5.84,5.09-10.3,4.96c-4.12-0.12-6.15-2.16-9.14-3.61
										c-1.89-0.92-1.89-0.92-4.46-0.5c-2.08,0.34-3.15,2.79-4.32,4.54c2.22,4.84,1.32,10.47,0.38,15.71
										c-0.1,0.58-0.23,1.2-0.67,1.59c-0.75,0.66-1.96,0.26-2.7-0.41c-1.18-1.08-1.72-2.68-2.1-4.24
										c-0.88-3.54-1.22-7.24-0.66-10.84c0.56-3.6,2.05-7.1,4.51-9.79c3.08-3.36,7.57-5.3,12.12-5.53
										c4.55-0.23,9.12,1.17,12.93,3.67C402.09,293.55,403.75,294.98,404.74,296.85"/>
								</g>
							</g>
						</g>
					</g>
				</g>
				<path class="st10" d="M395.89,326.32c-1.13-0.53-2.27-1.06-3.4-1.59c-0.2-0.09-0.4-0.18-0.62-0.16
					c-0.24,0.03-0.43,0.21-0.59,0.4c-0.79,0.95-0.99,2.4-0.38,3.47c0.61,1.08,2.05,1.65,3.19,1.17c1.2-0.5,1.79-1.9,1.88-3.2
					L395.89,326.32z"/>
				<g>
					<path class="st4" d="M394.2,329.86c0.05,0.07-0.71,0.55-1.99,0.18c-0.62-0.19-1.33-0.66-1.76-1.43
						c-0.44-0.75-0.61-1.82-0.22-2.79c0.18-0.48,0.47-0.9,0.82-1.23c0.18-0.17,0.36-0.3,0.58-0.43c0.21-0.16,0.68-0.18,0.9-0.05
						c0.78,0.43,1.3,0.8,1.82,1.14c1,0.66,1.59,1.12,1.53,1.21c-0.05,0.09-0.74-0.2-1.81-0.74c-0.62-0.32-1.22-0.64-1.81-0.95
						c-0.14-0.04-0.13-0.04-0.26,0.03c-0.13,0.09-0.29,0.21-0.42,0.34c-0.26,0.26-0.49,0.6-0.63,0.97c-0.3,0.74-0.19,1.55,0.13,2.17
						c0.32,0.63,0.83,1.04,1.33,1.26C393.42,329.97,394.18,329.74,394.2,329.86z"/>
				</g>
				<g>
					<path class="st4" d="M393.13,314.53c-0.07,0-0.07-0.62-0.36-1.66c-0.29-1.02-1.01-2.52-2.55-3.65
						c-1.49-1.14-3.94-1.77-6.3-0.89c-2.34,0.81-4.35,3.3-4.33,6.21c-0.03,2.9,1.99,5.39,4.33,6.21c2.36,0.89,4.8,0.26,6.3-0.89
						c1.55-1.14,2.26-2.63,2.55-3.65C393.06,315.15,393.06,314.53,393.13,314.53c0.03,0,0.04,0.15,0.06,0.45
						c0.02,0.29-0.01,0.74-0.13,1.29c-0.22,1.09-0.89,2.72-2.51,4.02c-1.57,1.29-4.24,2.07-6.87,1.12
						c-2.61-0.86-4.89-3.63-4.86-6.88c-0.03-3.25,2.25-6.02,4.86-6.87c2.63-0.94,5.3-0.17,6.87,1.12c1.63,1.29,2.3,2.93,2.51,4.02
						c0.12,0.55,0.14,0.99,0.13,1.29C393.18,314.38,393.16,314.53,393.13,314.53z"/>
				</g>
				<g>
					<path class="st4" d="M409.76,313.88c-0.07,0-0.07-0.6-0.36-1.62c-0.29-1-0.98-2.45-2.49-3.56c-1.46-1.11-3.84-1.72-6.13-0.86
						c-2.28,0.79-4.24,3.21-4.21,6.04c-0.03,2.83,1.93,5.25,4.21,6.04c2.29,0.86,4.68,0.25,6.13-0.86c1.51-1.11,2.2-2.56,2.49-3.56
						C409.69,314.48,409.69,313.87,409.76,313.88c0.03,0,0.05,0.15,0.06,0.44c0.02,0.29-0.01,0.72-0.12,1.26
						c-0.21,1.06-0.86,2.66-2.45,3.92c-1.53,1.26-4.14,2.02-6.7,1.1c-2.54-0.84-4.77-3.54-4.74-6.71c-0.03-3.17,2.2-5.87,4.74-6.71
						c2.57-0.92,5.17-0.17,6.7,1.1c1.59,1.26,2.24,2.85,2.45,3.92c0.11,0.54,0.14,0.97,0.12,1.26
						C409.81,313.73,409.79,313.88,409.76,313.88z"/>
				</g>
				<g>
					<path class="st4" d="M396.19,312.34c-0.15,0.14-0.81-0.28-1.7-0.26c-0.89,0-1.53,0.45-1.69,0.32c-0.2-0.11,0.42-1.07,1.68-1.09
						C395.73,311.3,396.39,312.22,396.19,312.34z"/>
				</g>
				<g>
					<path class="st4" d="M379.62,313.54c0.13,0.17-1.17,1.35-2.89,2.64c-1.72,1.29-3.22,2.19-3.35,2.02
						c-0.13-0.17,1.17-1.35,2.89-2.64C378,314.27,379.5,313.37,379.62,313.54z"/>
				</g>
			</g>
		</g>
		<g>
			<path class="st4" d="M517.06,314.19c0,0.21-17.13,0.39-38.26,0.39c-21.13,0-38.26-0.17-38.26-0.39c0-0.21,17.13-0.39,38.26-0.39
				C499.93,313.81,517.06,313.98,517.06,314.19z"/>
		</g>
		<g>
			<path class="st4" d="M481.68,322.2c0,0.21-9.1,0.39-20.31,0.39c-11.22,0-20.32-0.17-20.32-0.39c0-0.21,9.09-0.39,20.32-0.39
				C472.58,321.82,481.68,321.99,481.68,322.2z"/>
		</g>
	</g>
</g>
<g>
	<path class="st6" d="M746.3,373.36c0,0,20.34,9.91,27.48,35.5c7.14,25.59,29.02,92.22,29.02,92.22s12.5,14.7,13.84,25.59
		c1.34,10.89-1.34,37.23-5.36,42.14c-4.02,4.91-9.75,4.1-9.75,4.1l-52.61-4.99L728.2,429.2L746.3,373.36z"/>
	<path class="st6" d="M572.33,370.93c0,0-37.62,11.8-46.99,22.07l30.8,143.29l-0.49,45.21h178.34c0-2.23,1.6-150.11,1.6-150.11
		l10.71-58.03l-63.39-11.16l-12.5-9.82l-70.53,3.57l-10.71,10.71L572.33,370.93z"/>
	<g class="st7">
		<path d="M586.61,495.25c-0.55-1.22-1.34-2.53-2.64-2.8c-2.15-0.44-3.58,2.1-4.32,4.16c-5.79,16.4-13.46,31.49-23.43,45.74
			l-0.46,22c10.4-8.75,20.65-18.12,27.28-29.98C589.67,522.51,592.21,507.63,586.61,495.25z"/>
	</g>
	<path class="st6" d="M525.33,393c0,0-12.39,16.9-17.54,27.93c-5.15,11.03-47.79,103.68-50.37,113.23
		c-2.57,9.56-9.19,39.71,10.29,46.69h40.07l40.22-81.33l2.06-94.4L525.33,393z"/>
	<g>
		<path class="st4" d="M510.36,522.1c-0.05,0.06-0.89-0.79-2.74-1.84c-1.84-1.04-4.7-2.24-8.41-3.05c-1.85-0.41-3.91-0.72-6.13-0.86
			c-2.22-0.14-4.61-0.1-7.03,0.46c-4.86,1.08-9.69,4.15-13.49,8.47c-3.86,4.31-6.24,9.4-7.64,14.2c-1.42,4.81-2.03,9.33-2.41,13.11
			c-0.37,3.79-0.52,6.88-0.65,9.01c-0.06,1-0.11,1.81-0.15,2.45c-0.04,0.56-0.08,0.86-0.1,0.85c-0.03,0-0.04-0.3-0.05-0.86
			c0-0.65,0.01-1.46,0.01-2.46c0.04-2.14,0.1-5.23,0.4-9.05c0.32-3.81,0.87-8.37,2.27-13.26c1.38-4.88,3.8-10.11,7.74-14.51
			c3.89-4.42,8.87-7.57,13.91-8.65c2.51-0.56,4.98-0.57,7.23-0.4c2.26,0.17,4.34,0.52,6.21,0.97c3.74,0.89,6.62,2.18,8.44,3.32
			c0.91,0.58,1.57,1.09,1.99,1.47C510.17,521.87,510.38,522.08,510.36,522.1z"/>
	</g>
	<g>
		<path class="st4" d="M491.36,505.91c0-0.05,0.47-0.13,1.35-0.22c0.87-0.11,2.15-0.13,3.72-0.05c1.57,0.07,3.44,0.34,5.47,0.81
			c2.02,0.51,4.2,1.24,6.38,2.26c2.17,1.05,4.11,2.29,5.78,3.54c1.64,1.28,3.02,2.56,4.07,3.74c1.05,1.17,1.83,2.18,2.3,2.92
			c0.48,0.74,0.72,1.15,0.68,1.18c-0.12,0.08-1.2-1.52-3.37-3.73c-1.08-1.11-2.47-2.32-4.1-3.55c-1.65-1.19-3.56-2.38-5.68-3.41
			c-2.13-1-4.26-1.74-6.22-2.27c-1.98-0.5-3.79-0.82-5.33-0.95C493.3,505.88,491.37,506.05,491.36,505.91z"/>
	</g>
	<g>
		<path class="st4" d="M527.59,501.45c-0.01,0.05-0.67,0-1.85-0.14c-1.18-0.15-2.9-0.32-5.02-0.48c-4.24-0.32-10.13-0.4-16.58,0.36
			c-6.44,0.78-12.15,2.24-16.2,3.56c-2.02,0.65-3.65,1.23-4.76,1.65c-1.12,0.42-1.75,0.62-1.77,0.57c-0.02-0.05,0.57-0.35,1.65-0.85
			c1.08-0.51,2.69-1.17,4.7-1.89c4.03-1.45,9.78-3.02,16.28-3.81c6.51-0.77,12.46-0.61,16.72-0.14c2.13,0.23,3.84,0.48,5.02,0.73
			C526.95,501.24,527.6,501.4,527.59,501.45z"/>
	</g>
	<g>
		<path class="st4" d="M641.73,422.29c-0.02,0.01-0.16-0.15-0.41-0.48c-0.29-0.38-0.65-0.87-1.09-1.46
			c-0.98-1.36-2.34-3.24-4.03-5.58c-3.46-4.88-8.28-11.69-13.96-19.69l0.62-0.09c-2.16,6.34-4.54,13.34-7.05,20.7l-0.16,0.47
			l-0.4-0.26c-0.26-0.17-0.55-0.35-0.83-0.53c-3.32-2.1-6.24-4.63-8.73-7.37c-2.47-2.75-4.52-5.69-6.23-8.61
			c-3.41-5.87-5.46-11.67-6.86-16.57c-1.39-4.92-2.11-9-2.6-11.81c-0.23-1.34-0.42-2.42-0.56-3.23c-0.07-0.37-0.14-0.64-0.19-0.83
			c-0.07-0.17-0.1-0.27-0.09-0.27c0.16-0.07,0.6,1.48,1.14,4.27c0.57,2.79,1.38,6.83,2.82,11.71c1.45,4.86,3.55,10.59,6.95,16.37
			c1.7,2.88,3.74,5.77,6.18,8.47c2.45,2.69,5.33,5.16,8.58,7.22c0.28,0.18,0.56,0.36,0.82,0.52l-0.56,0.21
			c2.53-7.36,4.93-14.34,7.11-20.68l0.23-0.66l0.4,0.57c5.58,8.07,10.33,14.93,13.73,19.85c1.62,2.39,2.92,4.31,3.87,5.7
			c0.41,0.62,0.74,1.13,1,1.53C641.64,422.1,641.74,422.28,641.73,422.29z"/>
	</g>
	<g class="st7">
		<path d="M688.16,490.7c-1.65,16.57,2.01,33.62,10.3,48.05c8.3,14.43,20.46,27.3,35.61,34.2c0.49-14.71-0.22-32.03,0.27-46.73
			L688.16,490.7z"/>
	</g>
	<g>
		<path class="st9" d="M686.48,471.34c0,0-6.48,1.8-1.62,15.07c4.86,13.27,6.48,12.47,9.72,24.88c3.24,12.42,7.02,23.75,12.69,30.76
			c5.67,7.02,26.72,21.32,26.72,21.32l18.89-17.81c0,0-3.11-13.28-2.37-22.29c0.75-9.02,2.64-31.15,2.37-34.93
			c-0.27-3.78-4.32-12.96-4.32-12.96v-6.28l-9.72-29.89c0,0-5.4-2.43-7.29,6.21l-3.24-9.17c0,0-5.13-0.82-6.48,9.71
			c-1.35,10.53,1.08,25.1,1.08,25.1l-2.7,18.35l-4.05,12.42l-3.51,0.54c0,0-5.28-1.44-8.17-11.38
			C701.59,481.05,693.77,469.18,686.48,471.34z"/>
		<g>
			<path class="st10" d="M746.55,518.29c-0.02,0-0.05-0.23-0.09-0.68c-0.04-0.51-0.08-1.17-0.14-1.98c-0.1-1.81-0.23-4.31-0.4-7.43
				c-0.29-6.45-0.7-15.41-1.17-25.88l0.08,0.22c-0.87-1.04-2.42-1.35-3.82-1c-1.43,0.34-2.71,1.24-3.5,2.57
				c-1.65,2.66-1.74,6.12-2.26,9.46c-1.02,7.56-2,14.77-2.89,21.33c-0.45,3.28-0.92,6.4-1.56,9.29c-0.62,2.89-1.49,5.52-2.34,7.87
				c-0.84,2.36-1.57,4.49-2.03,6.41c-0.46,1.92-0.65,3.61-0.61,5c0.06,2.79,0.87,4.2,0.75,4.23c-0.02,0.01-0.18-0.34-0.45-1.03
				c-0.22-0.7-0.54-1.77-0.59-3.19c-0.08-1.41,0.06-3.15,0.49-5.11c0.42-1.96,1.13-4.12,1.94-6.49c0.82-2.37,1.64-4.96,2.23-7.83
				c0.61-2.87,1.05-5.97,1.48-9.25c0.87-6.57,1.83-13.77,2.83-21.34c0.24-1.69,0.42-3.35,0.71-5.02c0.3-1.65,0.76-3.31,1.67-4.74
				c0.86-1.46,2.37-2.52,3.97-2.88c1.58-0.4,3.47-0.05,4.55,1.25l0.08,0.1l0,0.12c0.36,10.47,0.67,19.45,0.89,25.9
				c0.08,3.12,0.15,5.63,0.19,7.44c0.01,0.81,0.02,1.47,0.02,1.98C746.58,518.05,746.57,518.28,746.55,518.29z"/>
		</g>
		<g>
			<path class="st10" d="M736.22,484.27c-0.05,0.02-0.35-0.57-0.8-1.69c-0.44-1.12-1.03-2.76-1.58-4.84
				c-0.55-2.08-1.06-4.6-1.36-7.44c-0.14-1.42-0.25-2.93-0.08-4.51c0.16-1.56,0.63-3.22,1.63-4.63c0.85-1.22,2.07-2.19,3.45-2.59
				l0.29-0.08l0.15,0.26c2.74,4.83,5.11,9.09,6.78,12.15c0.77,1.44,1.41,2.64,1.94,3.62c0.44,0.86,0.66,1.34,0.62,1.36
				c-0.04,0.02-0.34-0.41-0.85-1.23c-0.58-0.95-1.29-2.12-2.13-3.51c-1.79-3-4.25-7.21-7.01-12.02l0.44,0.18
				c-1.19,0.36-2.27,1.21-3.04,2.31c-0.91,1.27-1.34,2.78-1.51,4.27c-0.17,1.49-0.09,2.96,0.04,4.36c0.25,2.8,0.7,5.3,1.18,7.37
				c0.48,2.08,0.98,3.73,1.34,4.87C736.07,483.62,736.28,484.25,736.22,484.27z"/>
		</g>
		<g>
			<path class="st10" d="M731.71,486.7c-0.05,0-0.11-0.61-0.18-1.72c-0.05-1.27-0.12-2.84-0.19-4.7c-0.13-3.97-0.25-9.45-0.34-15.5
				c-0.05-6.05-0.28-11.55,0.24-15.54c0.25-1.99,0.65-3.57,1.01-4.62c0.36-1.06,0.65-1.61,0.69-1.59c0.13,0.04-0.82,2.34-1.16,6.27
				c-0.38,3.92-0.06,9.41-0.01,15.47c0.09,6.06,0.12,11.54,0.11,15.51c-0.02,1.86-0.04,3.43-0.05,4.7
				C731.8,486.09,731.76,486.7,731.71,486.7z"/>
		</g>
		<g>
			<path class="st10" d="M715.73,536.47c-0.11-0.09,1.07-1.48,2.53-4.01c0.74-1.25,1.49-2.82,2.2-4.61c0.67-1.8,1.28-3.83,1.68-6.01
				c0.38-2.19,0.52-4.3,0.52-6.22c-0.04-1.92-0.19-3.65-0.45-5.09c-0.49-2.87-1.11-4.59-0.97-4.64c0.05-0.02,0.24,0.4,0.54,1.17
				c0.31,0.77,0.66,1.92,0.97,3.37c0.33,1.45,0.55,3.21,0.62,5.17c0.04,1.96-0.08,4.13-0.48,6.37c-0.42,2.23-1.06,4.31-1.78,6.13
				c-0.76,1.81-1.58,3.39-2.39,4.63c-0.8,1.25-1.53,2.21-2.09,2.82C716.09,536.18,715.77,536.51,715.73,536.47z"/>
		</g>
		<path class="st9" d="M748.9,527.19l16.4,5.69c0,0,15.66-8.1,26.45,0c10.8,8.1,20.17,29.44,17.21,38.08c0,0-7.45,9.2-13.12,10.55
			c-5.67,1.35-27.7-3.99-36.87-5.92c-9.19-1.94-24.98-12.21-24.98-12.21L748.9,527.19z"/>
		<g>
			<path class="st10" d="M750.91,551.34c-0.05,0-0.11-0.52-0.18-1.45c-0.07-1.11-0.14-2.43-0.23-3.96
				c-0.17-3.35-0.4-7.97-0.47-13.09c-0.08-5.12,0.07-9.76,0.38-13.11c0.14-1.67,0.33-3.02,0.5-3.95c0.17-0.93,0.29-1.43,0.34-1.42
				c0.12,0.02-0.14,2.07-0.29,5.41c-0.17,3.34-0.23,7.96-0.15,13.06c0.09,5,0.18,9.53,0.24,13.08c0.02,1.68,0.01,3.03-0.01,3.97
				C751.01,550.82,750.97,551.34,750.91,551.34z"/>
		</g>
	</g>
	<g>
		<path class="st4" d="M804.98,532.23c-0.12,0.11-1.8-2.22-5.45-4.92c-3.59-2.69-9.43-5.56-16.34-5.95
			c-6.91-0.37-13.03,1.84-16.9,4.12c-3.93,2.28-5.85,4.41-5.96,4.29c-0.03-0.03,0.42-0.58,1.35-1.46c0.93-0.89,2.37-2.07,4.33-3.29
			c3.86-2.44,10.11-4.81,17.22-4.42c7.1,0.4,13.06,3.43,16.63,6.28c1.81,1.42,3.12,2.76,3.94,3.75
			C804.62,531.61,805.01,532.21,804.98,532.23z"/>
	</g>
	<g>
		<path class="st4" d="M802.87,518.56c-0.11,0.16-2.29-2.05-6.82-3.76c-4.45-1.75-11.37-2.55-18.46-0.55
			c-3.54,0.99-6.78,2.4-9.55,3.97c-2.77,1.58-5.08,3.31-6.91,4.89c-1.84,1.57-3.25,2.94-4.21,3.89c-0.96,0.96-1.5,1.48-1.54,1.45
			c-0.04-0.03,0.43-0.63,1.33-1.65c0.9-1.02,2.26-2.46,4.07-4.1c1.81-1.64,4.12-3.44,6.92-5.09c2.8-1.63,6.08-3.09,9.69-4.1
			c7.27-2.05,14.36-1.13,18.87,0.79c2.28,0.93,3.97,2.01,5.05,2.85c0.56,0.4,0.93,0.79,1.2,1.02
			C802.76,518.41,802.89,518.54,802.87,518.56z"/>
	</g>
	<g>
		<path class="st4" d="M803.01,506.71c-0.04,0.15-2.91-0.72-7.67-1.37c-2.38-0.34-5.23-0.53-8.4-0.53
			c-3.17,0.05-6.65,0.31-10.26,0.92c-3.6,0.65-6.97,1.6-9.96,2.64c-2.98,1.09-5.6,2.24-7.72,3.37c-4.26,2.23-6.65,4.03-6.74,3.9
			c-0.03-0.04,0.55-0.51,1.64-1.31c0.54-0.41,1.21-0.89,2.04-1.39c0.82-0.51,1.73-1.13,2.8-1.68c2.11-1.2,4.73-2.42,7.73-3.56
			c3.02-1.09,6.42-2.07,10.07-2.73c3.65-0.62,7.19-0.87,10.39-0.87c3.21,0.04,6.09,0.29,8.48,0.7c1.2,0.15,2.27,0.43,3.21,0.62
			c0.94,0.19,1.74,0.41,2.39,0.61C802.31,506.43,803.02,506.66,803.01,506.71z"/>
	</g>
	<g>
		<path class="st4" d="M677.39,361.71c0,0,0.76,1.42,1.14,4.36c0.4,2.92,0.35,7.3-0.62,12.72c-0.49,2.71-1.14,5.69-2.12,8.87
			c-1.02,3.18-2.56,6.44-4.31,9.85c-3.53,6.81-7.98,14.24-13.12,22.16l-0.6,0.93l0-1.11c-0.01-5.23-0.02-10.73-0.03-16.43l0.58,0.28
			c-4.41,3.56-9.05,7.3-13.83,11.16l0.12-0.18c-3.2,10.16-5.31,21.47-6.15,33.24c-1.35,18.02-0.26,35.26,0.59,50.89
			c0.73,15.66,1.21,29.76,1.69,41.6c0.47,11.84,0.9,21.42,1.25,28.04c0.19,3.28,0.35,5.84,0.45,7.62c0.06,0.84,0.1,1.5,0.13,1.98
			c0.03,0.45,0.02,0.68,0.02,0.68s-0.05-0.23-0.1-0.67c-0.05-0.48-0.12-1.13-0.21-1.97c-0.16-1.74-0.38-4.3-0.59-7.61
			c-0.45-6.61-0.96-16.19-1.5-28.03c-0.53-11.85-1.16-25.94-1.86-41.59c-0.89-15.62-2.01-32.9-0.65-50.99
			c0.84-11.82,2.97-23.19,6.21-33.41l0.03-0.11l0.09-0.07c4.79-3.85,9.44-7.59,13.85-11.13l0.58-0.46l0,0.74
			c-0.01,5.7-0.02,11.2-0.03,16.43l-0.6-0.18c10.17-15.78,18.45-29.48,19.72-40.57c1.02-5.38,1.13-9.72,0.8-12.63
			c-0.14-1.46-0.43-2.55-0.61-3.28C677.48,362.09,677.39,361.71,677.39,361.71z"/>
	</g>
	<path class="st8" d="M650.83,552.72l-0.53-0.02c-2.14,0.06-4.05,2.02-4.06,4.16c-0.01,2.14,1.89,4.11,4.03,4.19
		c2.14,0.07,4.17-1.76,4.31-3.9C654.73,555.02,652.96,552.93,650.83,552.72z"/>
	<g>
		<path class="st8" d="M650.83,495.65l-0.53-0.02c-2.14,0.06-4.05,2.02-4.06,4.16c-0.01,2.14,1.89,4.11,4.03,4.19
			c2.14,0.07,4.17-1.76,4.31-3.9C654.73,497.95,652.96,495.86,650.83,495.65z"/>
		<path class="st8" d="M650.27,444.59c2.14,0.07,4.17-1.76,4.31-3.9c0.14-2.14-1.63-4.22-3.76-4.43l-0.53-0.02
			c-2.14,0.06-4.05,2.02-4.06,4.16C646.23,442.55,648.13,444.52,650.27,444.59z"/>
	</g>
	<g>
		<g>
			<g>
				<path class="st4" d="M586.34,294.84c-5.19-5.75-10.43-11.56-14.21-18.32c-3.78-6.76-6.04-14.64-4.79-22.29
					c0.73-4.47,2.63-8.73,2.93-13.25c0.42-6.22-2.2-12.72,0.01-18.55c3.45-9.11,15.71-10.52,23.14-16.81
					c5.79-4.9,8.61-12.86,14.98-16.98c5.56-3.6,12.71-3.52,19.28-2.59c6.56,0.93,13.17,2.58,19.73,1.7
					c4.68-0.63,9.09-2.52,13.68-3.66c4.59-1.14,9.7-1.44,13.79,0.94c4.09,2.37,6.38,8.17,3.7,12.06
					c7.61-3.51,17.28,2.42,19.36,10.54c2.08,8.12-2.09,16.89-8.54,22.24c-6.45,5.35-14.79,7.84-23.03,9.4
					c-23.32,4.4-48.62,1.92-68.71-10.71"/>
			</g>
			<g>
				<g>
					<g>
						<g>
							<g>
								<g>
									<g>
										<g>
											<g>
												<g>
													<g>
														<g>
															<g>
																<g>
																	<g>
																		<g>
																			<g>
																				<path class="st9" d="M668.32,373.24c-1.14-8.83-2.07-16.19-2.13-17.11c0,0,29.5-6.63,27.87-36.46
																					c-0.79-14.41-4.82-43.97-8.78-70.67c-4.25-28.67-29.85-49.25-58.77-47.32l-2.88,0.19
																					c-30.89,3.89-44.84,32.29-40.1,63.06l16.67,103.17c0,0,7.11,22.82,22.32,26.77l19.2,27.42l3.17-11.81
																					l14.31-12.46c0,0,3.28-3.55,7.05-10.5C669.35,381.85,668.7,376.01,668.32,373.24z"/>
																			</g>
																		</g>
																	</g>
																</g>
															</g>
														</g>
													</g>
												</g>
											</g>
										</g>
										<g>
											<g>
												<g>
													<g>
														<g>
															<g>
																<g>
																	<g>
																		<g>
																			<g>
																				<path class="st10" d="M666.22,355.7c0,0-18.73,2.79-39.59-8.44c0,0,10.62,20.83,40.18,16.16L666.22,355.7z"/>
																			</g>
																		</g>
																	</g>
																</g>
															</g>
														</g>
													</g>
												</g>
											</g>
										</g>
									</g>
								</g>
							</g>
							<g>
								<g>
									<g>
										<g>
											<g>
												<g>
													<g>
														<g>
															<g>
																<g>
																	<g>
																		<g>
																			<g>
																				<g>
																					<g>
																						<g>
																							<path class="st4" d="M675.7,274.63c0.23,2.24-1.48,4.29-3.82,4.57c-2.33,0.28-4.41-1.3-4.64-3.54
																								c-0.23-2.24,1.48-4.29,3.81-4.57C673.39,270.8,675.47,272.39,675.7,274.63z"/>
																						</g>
																					</g>
																				</g>
																			</g>
																		</g>
																	</g>
																</g>
															</g>
														</g>
													</g>
													<g>
														<g>
															<g>
																<g>
																	<g>
																		<g>
																			<g>
																				<g>
																					<g>
																						<g>
																							<g>
																								<path class="st4" d="M679.86,264.06c-0.49,0.59-3.87-1.58-8.45-1.26c-4.58,0.25-7.78,2.83-8.32,2.31
																									c-0.26-0.23,0.21-1.27,1.6-2.43c1.37-1.16,3.76-2.35,6.61-2.53c2.85-0.18,5.32,0.71,6.77,1.7
																									C679.56,262.82,680.11,263.79,679.86,264.06z"/>
																							</g>
																						</g>
																					</g>
																				</g>
																			</g>
																		</g>
																	</g>
																</g>
															</g>
														</g>
													</g>
												</g>
												<g>
													<g>
														<g>
															<g>
																<g>
																	<g>
																		<g>
																			<g>
																				<g>
																					<g>
																						<g>
																							<path class="st4" d="M632.44,277.73c0.23,2.24-1.48,4.29-3.82,4.57c-2.33,0.28-4.41-1.3-4.64-3.54
																								c-0.23-2.24,1.48-4.29,3.81-4.57C630.12,273.9,632.21,275.48,632.44,277.73z"/>
																						</g>
																					</g>
																				</g>
																			</g>
																		</g>
																	</g>
																</g>
															</g>
														</g>
													</g>
													<g>
														<g>
															<g>
																<g>
																	<g>
																		<g>
																			<g>
																				<g>
																					<g>
																						<g>
																							<g>
																								<path class="st4" d="M634.9,267.92c-0.49,0.59-3.88-1.58-8.46-1.26c-4.58,0.25-7.78,2.83-8.32,2.31
																									c-0.26-0.23,0.21-1.27,1.6-2.43c1.37-1.16,3.76-2.35,6.61-2.53c2.85-0.17,5.32,0.71,6.78,1.7
																									C634.59,266.69,635.14,267.66,634.9,267.92z"/>
																							</g>
																						</g>
																					</g>
																				</g>
																			</g>
																		</g>
																	</g>
																</g>
															</g>
														</g>
													</g>
												</g>
												<g>
													<g>
														<g>
															<g>
																<g>
																	<g>
																		<g>
																			<g>
																				<g>
																					<g>
																						<g>
																							<path class="st4" d="M653.79,300.78c-0.04-0.26,2.78-0.94,7.35-1.84c1.16-0.2,2.25-0.51,2.4-1.32
																								c0.22-0.86-0.35-2.09-1.01-3.41c-1.29-2.76-2.64-5.65-4.05-8.67c-5.65-12.36-9.83-22.55-9.33-22.77
																								c0.5-0.22,5.49,9.61,11.14,21.97c1.37,3.05,2.67,5.96,3.91,8.74c0.53,1.3,1.39,2.76,0.91,4.55
																								c-0.26,0.89-1.07,1.59-1.81,1.84c-0.73,0.28-1.39,0.34-1.97,0.41C656.71,300.82,653.83,301.04,653.79,300.78
																								z"/>
																						</g>
																					</g>
																				</g>
																			</g>
																		</g>
																	</g>
																</g>
															</g>
														</g>
													</g>
												</g>
											</g>
										</g>
									</g>
									<g>
										<g>
											<g>
												<g>
													<g>
														<g>
															<g>
																<g>
																	<g>
																		<g>
																			<path class="st4" d="M634.88,249.9c-0.37,1.28-4.98,0.99-10.31,2c-5.35,0.9-9.58,2.76-10.37,1.69
																				c-0.35-0.51,0.32-1.74,2-3.06c1.66-1.32,4.35-2.65,7.55-3.22c3.2-0.57,6.19-0.25,8.2,0.41
																				C633.98,248.38,635.04,249.29,634.88,249.9z"/>
																		</g>
																	</g>
																</g>
															</g>
														</g>
													</g>
												</g>
											</g>
										</g>
									</g>
									<g>
										<g>
											<g>
												<g>
													<g>
														<g>
															<g>
																<g>
																	<g>
																		<g>
																			<path class="st4" d="M677.29,250.91c-0.74,1.09-3.96,0.23-7.76,0.43c-3.8,0.07-6.96,1.17-7.77,0.13
																				c-0.36-0.51,0.08-1.58,1.41-2.66c1.32-1.07,3.58-2.03,6.19-2.13c2.61-0.09,4.93,0.7,6.33,1.68
																				C677.1,249.34,677.61,250.38,677.29,250.91z"/>
																		</g>
																	</g>
																</g>
															</g>
														</g>
													</g>
												</g>
											</g>
										</g>
									</g>
								</g>
							</g>
						</g>
					</g>
				</g>
				<g>
					<g>
						<g>
							<g>
								<g>
									<g>
										<g>
											<g>
												<g>
													<g>
														<g>
															<path class="st9" d="M587.45,286.84c-0.52-0.19-20.88-4.69-18.87,15.65c2.01,20.33,24.05,13.71,24.03,13.12
																C592.58,315.01,587.45,286.84,587.45,286.84z"/>
														</g>
													</g>
												</g>
											</g>
										</g>
									</g>
								</g>
							</g>
						</g>
					</g>
					<g>
						<g>
							<g>
								<g>
									<g>
										<g>
											<g>
												<g>
													<g>
														<g>
															<g>
																<path class="st10" d="M583.6,308.92c-0.1-0.06-0.33,0.28-0.9,0.62c-0.56,0.32-1.54,0.61-2.64,0.32
																	c-2.23-0.58-4.37-3.81-4.83-7.46c-0.23-1.85-0.02-3.65,0.49-5.17c0.47-1.55,1.33-2.68,2.4-2.98
																	c1.05-0.36,1.88,0.22,2.19,0.76c0.33,0.54,0.24,0.96,0.35,0.98c0.06,0.05,0.4-0.38,0.16-1.21
																	c-0.12-0.4-0.41-0.85-0.93-1.19c-0.53-0.35-1.27-0.48-2.01-0.32c-1.56,0.26-2.83,1.85-3.39,3.52
																	c-0.65,1.69-0.93,3.72-0.67,5.79c0.54,4.08,3.01,7.71,6.04,8.27c1.47,0.23,2.62-0.32,3.19-0.86
																	C583.61,309.42,583.67,308.95,583.6,308.92z"/>
															</g>
														</g>
													</g>
												</g>
											</g>
										</g>
									</g>
								</g>
							</g>
						</g>
					</g>
				</g>
				<g>
					<g>
						<g>
							<path class="st4" d="M683.79,221.22c-1.4,8.09-17.81,15.51-31.42,15.11c-12.55-0.37-18.74-6.59-27.86-11.02
								c-5.77-2.8-5.77-2.8-13.6-1.53c-6.33,1.03-9.62,8.5-13.17,13.84c6.77,14.76,4.03,31.93,1.16,47.91
								c-0.32,1.77-0.71,3.67-2.06,4.86c-2.29,2.02-5.99,0.81-8.24-1.25c-3.6-3.29-5.24-8.18-6.42-12.92
								c-2.69-10.79-3.72-22.08-2.01-33.06c1.71-10.98,6.25-21.65,13.76-29.85c9.38-10.25,23.09-16.15,36.96-16.87
								c13.87-0.71,27.81,3.58,39.42,11.19C675.7,211.18,680.74,215.54,683.79,221.22"/>
						</g>
					</g>
				</g>
			</g>
		</g>
		<path class="st10" d="M656.79,311.08c-3.45-1.61-6.91-3.22-10.36-4.83c-0.6-0.28-1.23-0.56-1.89-0.48
			c-0.73,0.1-1.32,0.65-1.79,1.22c-2.4,2.91-3.01,7.31-1.15,10.59c1.86,3.28,6.24,5.02,9.73,3.58c3.67-1.52,5.46-5.79,5.75-9.75
			L656.79,311.08z"/>
		<g>
			<path class="st4" d="M651.65,321.89c0.03,0.09-0.48,0.39-1.52,0.6c-1.03,0.2-2.62,0.27-4.46-0.33c-1.82-0.58-3.88-2-5.15-4.28
				c-1.29-2.22-1.76-5.35-0.63-8.17c0.54-1.4,1.38-2.64,2.41-3.62c0.52-0.5,1.06-0.9,1.68-1.27c0.32-0.18,0.73-0.36,1.2-0.38
				c0.46-0.03,0.87,0.09,1.2,0.23c0.68,0.3,1.12,0.63,1.61,0.92c0.48,0.3,0.95,0.59,1.41,0.87c0.89,0.56,1.74,1.09,2.52,1.58
				c3.07,1.95,4.92,3.25,4.81,3.43c-0.11,0.18-2.15-0.78-5.36-2.49c-0.82-0.44-1.69-0.91-2.62-1.42c-0.47-0.26-0.96-0.53-1.45-0.8
				c-0.5-0.26-1.03-0.6-1.46-0.77c-0.47-0.16-0.68-0.15-1.13,0.11c-0.45,0.29-0.94,0.66-1.36,1.08c-0.85,0.84-1.56,1.9-2.02,3.09
				c-0.95,2.39-0.61,4.98,0.44,6.94c1.03,1.99,2.7,3.29,4.28,3.94c1.59,0.66,3.03,0.76,4.01,0.75
				C651.06,321.87,651.62,321.77,651.65,321.89z"/>
		</g>
		<g>
			<path class="st4" d="M648.38,275.14c-0.12,0.01,0.02-1.89-0.81-5.15c-0.82-3.19-2.94-7.88-7.74-11.51
				c-2.38-1.77-5.37-3.28-8.82-3.88c-3.43-0.58-7.29-0.47-10.97,0.93c-1.85,0.64-3.64,1.62-5.28,2.85c-1.66,1.2-3.17,2.7-4.41,4.43
				c-2.57,3.41-4.01,7.8-4.05,12.32c0.04,4.52,1.49,8.91,4.05,12.33c1.24,1.73,2.75,3.23,4.41,4.44c1.64,1.23,3.43,2.2,5.28,2.85
				c3.68,1.4,7.55,1.52,10.97,0.93c3.45-0.6,6.44-2.11,8.82-3.88c4.8-3.63,6.92-8.32,7.74-11.51
				C648.4,277.04,648.26,275.13,648.38,275.14c0.01,0,0.02,0.12,0.02,0.34c0,0.27-0.01,0.61-0.01,1.01c0,0.45-0.02,1-0.13,1.64
				c-0.09,0.65-0.17,1.4-0.4,2.22c-0.35,1.66-1.09,3.64-2.3,5.73c-1.21,2.09-2.98,4.28-5.4,6.14c-2.42,1.85-5.48,3.43-9.04,4.08
				c-3.53,0.63-7.52,0.54-11.33-0.89c-1.92-0.66-3.77-1.66-5.47-2.92c-1.72-1.24-3.29-2.79-4.58-4.58
				c-2.67-3.53-4.17-8.09-4.21-12.78c0.04-4.69,1.55-9.24,4.22-12.77c1.29-1.79,2.86-3.34,4.58-4.58c1.7-1.27,3.55-2.27,5.47-2.92
				c3.81-1.43,7.8-1.52,11.33-0.89c3.55,0.65,6.62,2.23,9.04,4.08c2.43,1.86,4.19,4.05,5.41,6.14c1.2,2.1,1.95,4.07,2.3,5.73
				c0.23,0.82,0.31,1.57,0.4,2.22c0.11,0.65,0.13,1.2,0.13,1.64c0.01,0.41,0.01,0.74,0.01,1.01
				C648.4,275.03,648.39,275.14,648.38,275.14z"/>
		</g>
		<g>
			<path class="st4" d="M699.09,273.15c-0.12,0.01,0.01-1.85-0.79-5.02c-0.8-3.11-2.87-7.68-7.54-11.21
				c-2.32-1.73-5.23-3.19-8.59-3.78c-3.34-0.57-7.1-0.46-10.69,0.91c-1.8,0.63-3.54,1.58-5.14,2.77c-1.62,1.17-3.08,2.63-4.29,4.32
				c-2.5,3.33-3.91,7.6-3.95,12c0.04,4.41,1.45,8.68,3.95,12.01c1.21,1.69,2.68,3.15,4.29,4.32c1.6,1.2,3.34,2.15,5.14,2.77
				c3.58,1.37,7.35,1.48,10.69,0.91c3.36-0.59,6.28-2.05,8.59-3.78c4.67-3.54,6.75-8.11,7.54-11.21
				C699.1,275,698.97,273.14,699.09,273.15c0.03,0,0.03,0.45,0.01,1.32c0,0.44-0.02,0.97-0.13,1.6c-0.08,0.63-0.16,1.36-0.39,2.16
				c-0.72,3.17-2.75,7.89-7.5,11.57c-2.36,1.8-5.34,3.34-8.81,3.98c-3.44,0.61-7.33,0.52-11.05-0.87c-1.87-0.64-3.68-1.62-5.34-2.85
				c-1.68-1.21-3.2-2.72-4.46-4.46c-2.6-3.44-4.07-7.88-4.11-12.46c0.04-4.57,1.51-9.01,4.11-12.45c1.26-1.75,2.78-3.25,4.46-4.46
				c1.66-1.23,3.47-2.21,5.34-2.85c3.72-1.39,7.61-1.48,11.05-0.87c3.46,0.63,6.45,2.17,8.81,3.98c4.76,3.69,6.79,8.4,7.51,11.57
				c0.23,0.8,0.3,1.53,0.39,2.16c0.1,0.63,0.13,1.17,0.13,1.6C699.12,272.7,699.12,273.15,699.09,273.15z"/>
		</g>
		<g>
			<path class="st4" d="M657.71,268.47c-0.08,0.09-0.57-0.33-1.47-0.75c-0.89-0.43-2.23-0.84-3.73-0.82
				c-1.5,0.02-2.82,0.49-3.7,0.95c-0.88,0.46-1.35,0.89-1.44,0.81c-0.07-0.06,0.27-0.65,1.16-1.28c0.87-0.62,2.3-1.23,3.97-1.25
				c1.67-0.03,3.12,0.53,4.01,1.11C657.41,267.83,657.78,268.41,657.71,268.47z"/>
		</g>
		<g>
			<path class="st4" d="M607.19,272.13c0.13,0.17-4.03,3.49-9.28,7.41c-5.25,3.92-9.61,6.96-9.74,6.79
				c-0.13-0.17,4.03-3.49,9.28-7.41C602.7,275,607.07,271.96,607.19,272.13z"/>
		</g>
	</g>
	<g class="st7">
		<path d="M589.67,368.5c-2.06,20.1,5.58,41.31,21.7,53.49c1.26,0.96,2.85,1.9,4.34,1.36c1.04-0.37,1.7-1.37,2.25-2.32
			c4.59-7.96,6.14-16.73,4.81-25.82c-2.55,6.72-4.74,13.32-7.32,20.35C601.4,407.03,592.65,388.9,589.67,368.5z"/>
	</g>
	<path class="st7" d="M644.24,414.2l11.83-4.32l1.96,20c0,0,12.76-23.26,18.04-33.87c5.28-10.61,2.56-29.34,2.56-29.34
		s1.89,16.31-10.9,37.12l-9.65,15.69v-16.43L644.24,414.2z"/>
	<g class="st7">
		<path d="M506.65,515.86c-5.27-2.49-11.34-2.82-17.14-2.15c-6.12,0.71-12.26,2.59-17.06,6.45c-4.79,3.87-8.05,9.97-7.45,16.1
			l0.59,0.08c4.13-11.17,12.34-19.3,22.92-20.28c10.59-0.98,20.91,3.73,28.18,11.49C515.99,521.77,511.92,518.35,506.65,515.86z"/>
	</g>
	<g class="st7">
		<path d="M805.74,527.28c-3.96-4.28-9.53-6.87-15.28-7.87c-10.09-1.76-20.91,1.37-28.5,8.25l2.26-1.83
			c5.73-3.35,12.34-5.34,18.98-5.16c6.64,0.19,13.28,2.65,18.09,7.23c4.42,4.21,7.08,9.9,9.61,15.46
			C811.9,537.61,809.71,531.56,805.74,527.28z"/>
	</g>
	<g>
		<path class="st4" d="M729.5,434.38c-0.05-0.02,0.14-0.6,0.53-1.62c0.46-1.17,1.02-2.61,1.68-4.3c1.43-3.63,3.4-8.64,5.47-14.22
			c2.07-5.58,3.86-10.66,5.15-14.34c0.61-1.72,1.12-3.17,1.54-4.36c0.37-1.03,0.6-1.59,0.65-1.57c0.05,0.02-0.08,0.61-0.37,1.66
			c-0.28,1.06-0.73,2.57-1.31,4.44c-1.16,3.73-2.87,8.85-4.95,14.44c-2.08,5.59-4.13,10.58-5.69,14.16
			c-0.78,1.79-1.43,3.23-1.91,4.21C729.83,433.87,729.55,434.4,729.5,434.38z"/>
	</g>
	<g>
		<path class="st4" d="M542.82,435.83c-0.21,0.04-1.82-7-3.59-15.74c-1.78-8.74-3.05-15.85-2.84-15.89c0.21-0.04,1.82,7,3.59,15.74
			C541.76,428.67,543.03,435.79,542.82,435.83z"/>
	</g>
	<g>
		<g>
			<path class="st9" d="M540.02,523.92c0.47,0.24-5.42-46.14-5.42-46.14s3.72-35.2,5.81-36.83l0.05-12.42c0,0,5.76-3.49,7.3,2.14
				c0,0,5.1-4.43,6,6.12c0.89,10.55,1.08,21.33,1.08,21.33l11.36,28.41l1.87,0.95c0,0,2.44-22.25,3.86-25.53
				c1.42-3.28,2.39-11.24,7.78-10.04c5.39,1.2,5.83,5.65,4.87,12.91c-0.97,7.26-2.17,14.76-1.72,19.45s2.58,15.01,1.92,23.21
				c-0.65,8.2-5.14,16.85-9.86,22.93c-4.71,6.07-13.72,18.63-18.61,22.42C554.6,554.14,540.02,523.92,540.02,523.92z"/>
			<g>
				<path class="st10" d="M545.76,486.17c-0.05,0-0.04-0.71,0.03-1.99c0.1-1.42,0.22-3.23,0.37-5.39
					c0.35-4.55,0.88-10.82,1.51-17.75c0.33-3.45,0.64-6.75,0.92-9.76c0.15-1.49,0.24-2.9,0.05-4.19c-0.18-1.28-0.68-2.4-1.42-3.2
					c-1.5-1.63-3.43-2.04-4.64-2.04c-1.25-0.01-1.91,0.33-1.93,0.25c-0.01-0.02,0.15-0.11,0.46-0.24c0.32-0.12,0.81-0.27,1.46-0.3
					c1.27-0.09,3.35,0.24,5.05,1.96c0.84,0.86,1.43,2.1,1.65,3.47c0.23,1.37,0.15,2.85,0.02,4.35c-0.27,3.02-0.56,6.31-0.86,9.77
					c-0.63,6.93-1.25,13.19-1.74,17.73c-0.25,2.15-0.45,3.95-0.61,5.37C545.93,485.48,545.81,486.18,545.76,486.17z"/>
			</g>
			<g>
				<path class="st10" d="M551.87,467.21c0.11,0.09-1.16,1.21-2.01,3.66c-0.92,2.42-1.25,6.05-1.89,10.01
					c-0.61,3.97-1.21,7.55-1.68,10.14c-0.47,2.59-0.81,4.18-0.92,4.16c-0.11-0.02,0.05-1.64,0.38-4.25
					c0.33-2.61,0.84-6.2,1.45-10.17c0.64-3.94,1.06-7.6,2.14-10.09c0.51-1.24,1.14-2.15,1.64-2.7
					C551.49,467.4,551.84,467.18,551.87,467.21z"/>
			</g>
			<g>
				<path class="st10" d="M547.69,430.06c0.05-0.01,0.19,0.51,0.4,1.46c0.21,0.95,0.46,2.33,0.75,4.04
					c0.57,3.42,1.19,8.18,1.58,13.46c0.39,5.28,0.47,10.08,0.42,13.55c-0.03,1.73-0.08,3.14-0.15,4.1c-0.06,0.97-0.12,1.5-0.18,1.5
					c-0.11,0-0.14-2.15-0.22-5.6c-0.08-3.46-0.25-8.23-0.64-13.49c-0.39-5.26-0.92-10.01-1.35-13.44
					C547.87,432.21,547.58,430.08,547.69,430.06z"/>
			</g>
			<g>
				<path class="st10" d="M580.46,473.55c0.11,0.18-1.66,1-3.83,0.33c-2.17-0.65-3.18-2.32-2.99-2.4c0.17-0.15,1.31,1.11,3.22,1.67
					C578.76,473.74,580.4,473.33,580.46,473.55z"/>
			</g>
			<path class="st9" d="M540.66,518.15l-30.01,12.61h-17.88c0,0-17.69,5.52-20.41,22.1c-2.72,16.58-3.11,25.11,4.66,27.16
				c7.77,2.05,29.74,2.28,40.62-1.33c10.88-3.61,39.4-26.62,39.4-26.62l2.75-16.64L540.66,518.15z"/>
		</g>
		<g>
			<path class="st10" d="M547.69,536.47c-0.04,0.04-0.34-0.24-0.85-0.78c-0.53-0.52-1.19-1.38-1.95-2.48
				c-1.48-2.21-3.11-5.58-4.19-9.49c-1.12-3.91-1.6-7.56-1.85-10.2c-0.23-2.64-0.21-4.28-0.12-4.29c0.11-0.01,0.29,1.62,0.66,4.23
				c0.39,2.6,0.94,6.2,2.05,10.05c1.07,3.86,2.57,7.17,3.91,9.41C546.7,535.16,547.8,536.38,547.69,536.47z"/>
		</g>
	</g>
	<g>
		<path class="st10" d="M560.76,541.73c-0.16-0.06,1.19-2.34,1.71-6.43c0.25-2.03,0.23-4.51-0.35-7.15
			c-0.57-2.65-1.84-5.37-3.68-7.92c-1.82-2.56-3.87-4.78-5.6-6.93c-1.75-2.14-3.14-4.24-4.06-6.13c-0.92-1.9-1.35-3.57-1.5-4.73
			c-0.15-1.17-0.09-1.82-0.05-1.82c0.15-0.03,0.1,2.65,2.04,6.31c0.95,1.82,2.36,3.84,4.12,5.93c1.74,2.11,3.81,4.32,5.68,6.94
			c1.88,2.6,3.19,5.47,3.74,8.21c0.56,2.74,0.52,5.29,0.2,7.37c-0.33,2.08-0.9,3.7-1.38,4.77c-0.23,0.54-0.45,0.94-0.61,1.2
			C560.87,541.61,560.78,541.75,560.76,541.73z"/>
	</g>
	<g>
		<g>
			<path class="st8" d="M514.49,469.47c-0.19,0.1-3.46-5.86-7.31-13.31c-3.85-7.45-6.82-13.56-6.63-13.66
				c0.19-0.1,3.46,5.86,7.31,13.31C511.71,463.25,514.68,469.37,514.49,469.47z"/>
		</g>
		<g>
			<path class="st8" d="M563.03,415.43c-0.19-0.09,1.83-5.05,4.52-11.09c2.69-6.04,5.03-10.87,5.23-10.78
				c0.19,0.09-1.83,5.05-4.52,11.1C565.56,410.69,563.22,415.52,563.03,415.43z"/>
		</g>
		<g>
			<path class="st8" d="M610.56,450.5c-0.16,0.14-3.21-3.27-6.8-7.61c-3.59-4.34-6.37-7.97-6.21-8.1c0.16-0.14,3.21,3.27,6.8,7.61
				C607.94,446.74,610.72,450.37,610.56,450.5z"/>
		</g>
		<g>
			<path class="st8" d="M599.62,498.73c-0.17-0.12,2.12-3.58,5.13-7.72c3-4.14,5.58-7.4,5.75-7.27c0.17,0.12-2.12,3.58-5.13,7.73
				C602.37,495.6,599.8,498.86,599.62,498.73z"/>
		</g>
		<g>
			<path class="st8" d="M584.9,566.86c-0.09,0.05-0.77-1.09-1.74-2.97c-0.97-1.89-2.23-4.54-3.5-7.53c-1.27-2.99-2.3-5.73-2.99-7.74
				c-0.69-2.01-1.03-3.28-0.93-3.32c0.1-0.04,0.63,1.17,1.44,3.12c0.93,2.23,2,4.8,3.19,7.64c1.22,2.82,2.33,5.38,3.28,7.59
				C584.5,565.59,585,566.81,584.9,566.86z"/>
		</g>
		<g>
			<path class="st8" d="M626.72,537.9c-0.04,0.21-4.07-0.39-8.99-1.35c-4.93-0.95-8.88-1.9-8.84-2.1c0.04-0.21,4.06,0.39,8.99,1.35
				C622.8,536.75,626.76,537.69,626.72,537.9z"/>
		</g>
		<g>
			<path class="st8" d="M659.16,474.24c-0.16-0.14,3.68-4.54,8.57-9.81c4.89-5.28,8.98-9.43,9.14-9.29
				c0.16,0.14-3.68,4.54-8.57,9.81C663.4,470.23,659.31,474.39,659.16,474.24z"/>
		</g>
		<g>
			<path class="st8" d="M691.79,559.14c-0.16,0.14-4.95-5.41-10.69-12.38c-5.74-6.97-10.26-12.73-10.1-12.87
				c0.16-0.14,4.95,5.41,10.7,12.38C687.43,553.24,691.95,559,691.79,559.14z"/>
		</g>
		<g>
			<path class="st8" d="M489.24,522.95c0.11,0.21-4.27,2.43-9.03,6.09c-4.79,3.63-8.09,7.26-8.26,7.1
				c-0.07-0.06,0.66-1.06,2.01-2.51c1.35-1.46,3.36-3.35,5.78-5.2c2.42-1.84,4.78-3.28,6.54-4.2
				C488.04,523.31,489.19,522.87,489.24,522.95z"/>
		</g>
		<g>
			<path class="st8" d="M501.44,490.23c0.18,0.12-1.38,2.77-3.48,5.93c-2.1,3.16-3.94,5.62-4.12,5.5c-0.18-0.12,1.38-2.77,3.48-5.93
				C499.42,492.58,501.26,490.12,501.44,490.23z"/>
		</g>
		<g>
			<path class="st8" d="M528.93,522.37c-0.17,0.1-1.71-2.49-2.52-6.08c-0.83-3.59-0.55-6.59-0.36-6.57c0.23,0,0.31,2.92,1.11,6.4
				C527.94,519.6,529.13,522.27,528.93,522.37z"/>
		</g>
		<g>
			<path class="st8" d="M533,420.31c0.03,0.21-2.52,0.75-5.7,1.2c-3.18,0.45-5.78,0.65-5.81,0.44c-0.03-0.21,2.52-0.75,5.71-1.2
				C530.37,420.29,532.97,420.1,533,420.31z"/>
		</g>
		<g>
			<path class="st8" d="M553.65,383.69c0.1,0.19-2.13,1.62-4.99,3.21c-2.86,1.59-5.26,2.72-5.37,2.53c-0.1-0.19,2.13-1.62,4.99-3.21
				C551.14,384.64,553.54,383.51,553.65,383.69z"/>
		</g>
		<g>
			<path class="st8" d="M611.71,399.16c-0.17,0.13-2.73-2.94-5.71-6.86c-2.99-3.92-5.27-7.2-5.1-7.33c0.17-0.13,2.73,2.94,5.71,6.86
				C609.59,395.75,611.88,399.03,611.71,399.16z"/>
		</g>
		<g>
			<path class="st8" d="M685.41,435.98c-0.14,0.14-2.84-2.64-5.33-6.67c-2.51-4.02-3.81-7.66-3.63-7.73
				c0.21-0.09,1.8,3.36,4.28,7.32C683.19,432.88,685.58,435.83,685.41,435.98z"/>
		</g>
		<g>
			<path class="st8" d="M713.54,445.25c0.19,0.09-1.17,3.52-3.05,7.66c-1.88,4.14-3.56,7.43-3.75,7.34
				c-0.19-0.09,1.17-3.52,3.05-7.66C711.66,448.45,713.34,445.16,713.54,445.25z"/>
		</g>
		<g>
			<path class="st8" d="M717.47,406.86c-0.16,0.14-3.51-3.62-7.48-8.39c-3.97-4.77-7.05-8.75-6.89-8.88
				c0.16-0.14,3.51,3.62,7.48,8.39C714.55,402.74,717.63,406.72,717.47,406.86z"/>
		</g>
		<g>
			<path class="st8" d="M674.51,375.67c-0.21,0.01-0.51-3.2-0.67-7.18c-0.16-3.97-0.11-7.2,0.1-7.21c0.21-0.01,0.51,3.2,0.67,7.18
				C674.76,372.43,674.72,375.66,674.51,375.67z"/>
		</g>
		<g>
			<path class="st8" d="M709.54,373.72c0.03,0.21-4.07,0.93-9.14,1.61c-5.08,0.68-9.22,1.06-9.25,0.85
				c-0.03-0.21,4.06-0.93,9.14-1.61C705.37,373.89,709.51,373.51,709.54,373.72z"/>
		</g>
		<g>
			<path class="st8" d="M764.71,414.25c-0.19,0.09-2.66-4.6-5.5-10.49c-2.85-5.89-5-10.73-4.81-10.82c0.19-0.09,2.65,4.6,5.5,10.49
				C762.75,409.31,764.9,414.16,764.71,414.25z"/>
		</g>
		<g>
			<path class="st8" d="M755.42,449.27c-0.21-0.04,0.37-3.82,1.29-8.43c0.92-4.61,1.84-8.32,2.05-8.28
				c0.21,0.04-0.37,3.81-1.29,8.43C756.54,445.61,755.63,449.31,755.42,449.27z"/>
		</g>
		<g>
			<path class="st8" d="M781.01,476.88c-0.2,0.07-2.17-5.02-4.39-11.38c-2.22-6.36-3.86-11.56-3.66-11.63
				c0.2-0.07,2.17,5.02,4.39,11.38C779.57,471.6,781.21,476.81,781.01,476.88z"/>
		</g>
		<g>
			<path class="st8" d="M777.45,493.03c-0.04,0.19-3.59-0.55-7.48-2.67c-3.91-2.1-6.46-4.67-6.33-4.81
				c0.15-0.18,2.88,2.08,6.69,4.13C774.13,491.75,777.51,492.8,777.45,493.03z"/>
		</g>
		<g>
			<path class="st8" d="M810.23,529.85c-0.19,0.09-1.38-2.16-2.66-5.02c-1.27-2.86-2.15-5.25-1.95-5.33
				c0.19-0.09,1.38,2.16,2.66,5.02C809.55,527.37,810.43,529.76,810.23,529.85z"/>
		</g>
		<g>
			<path class="st8" d="M616.61,581.2c-0.21,0.02-0.73-2.91-1.15-6.56c-0.42-3.65-0.6-6.62-0.38-6.65c0.21-0.02,0.73,2.91,1.15,6.56
				C616.65,578.2,616.82,581.17,616.61,581.2z"/>
		</g>
		<g>
			<path class="st8" d="M717.19,578.66c-0.21-0.04,0.23-2.92,0.97-6.41c0.74-3.5,1.52-6.3,1.72-6.25c0.21,0.04-0.23,2.91-0.97,6.41
				C718.17,575.9,717.4,578.7,717.19,578.66z"/>
		</g>
	</g>
</g>
<g>
	<g>
		<g>
			<g>
				<g>
					<g>
						<g>
							<g>
								<g>
									<path class="st3" d="M736.48,285.03l13.01-22.92c-5.75-9.34-9.08-20.33-9.08-32.11c0-33.86,27.45-61.31,61.31-61.31
										c33.86,0,61.31,27.45,61.31,61.31c0,33.86-27.45,61.31-61.31,61.31c-14.14,0-27.15-4.8-37.52-12.84l0.02,0.03
										L736.48,285.03z"/>
								</g>
							</g>
						</g>
					</g>
					<g>
						<g>
							<g>
								<g>
									<g>
										<path class="st4" d="M736.48,285.03c1.32-0.3,10.1-2.31,27.78-6.35l0.28-0.07l-0.18-0.23l-0.02-0.03l-0.27,0.26
											c3.5,2.71,7.69,5.38,12.61,7.6c4.93,2.19,10.58,3.97,16.82,4.8c3.11,0.4,6.37,0.65,9.71,0.49
											c1.67-0.09,3.37-0.14,5.09-0.28c1.7-0.26,3.43-0.52,5.18-0.78c6.94-1.37,14.04-4.01,20.67-8.12
											c6.62-4.09,12.75-9.66,17.66-16.49c4.9-6.82,8.62-14.91,10.37-23.69c1.72-8.78,1.58-18.18-0.72-27.29
											c-2.32-9.07-6.66-17.93-13.15-25.22l-2.51-2.76c-0.82-0.93-1.81-1.69-2.7-2.54c-0.93-0.8-1.78-1.71-2.78-2.43l-2.94-2.2
											c-0.95-0.77-2-1.39-3.05-2.02c-1.04-0.63-2.08-1.26-3.11-1.89c-1.09-0.53-2.17-1.06-3.26-1.58
											c-1.09-0.5-2.14-1.1-3.29-1.46c-8.91-3.54-18.41-4.88-27.49-4.22c-9.08,0.65-17.78,3.26-25.23,7.46
											c-7.48,4.16-13.79,9.72-18.66,15.93c-4.88,6.21-8.32,13.07-10.45,19.89c-2.12,6.86-2.69,13.66-2.67,19.95
											c0.18,6.31,1.33,12.12,3,17.22c1.68,5.11,3.88,9.5,6.15,13.2l0-0.18C741.12,276.72,737.11,283.9,736.48,285.03
											c0.65-1.12,4.76-8.25,13.16-22.83l0.05-0.09l-0.06-0.09c-2.23-3.69-4.4-8.07-6.04-13.15c-1.64-5.07-2.75-10.84-2.91-17.1
											c0-6.24,0.59-12.98,2.71-19.76c2.13-6.75,5.55-13.53,10.4-19.66c4.83-6.13,11.08-11.62,18.48-15.73
											c7.38-4.14,15.97-6.7,24.95-7.34c8.98-0.64,18.36,0.7,27.16,4.19c1.13,0.36,2.17,0.95,3.25,1.45
											c1.07,0.52,2.14,1.04,3.22,1.56c1.02,0.62,2.05,1.24,3.07,1.87c1.03,0.62,2.07,1.23,3.01,1.99l2.91,2.17
											c0.99,0.7,1.82,1.6,2.75,2.4c0.88,0.84,1.85,1.59,2.66,2.51l2.47,2.72c6.41,7.2,10.69,15.95,12.99,24.91
											c2.28,8.99,2.43,18.29,0.74,26.96c-1.71,8.68-5.38,16.68-10.22,23.43c-4.85,6.76-10.9,12.27-17.44,16.34
											c-6.54,4.08-13.56,6.71-20.44,8.08c-1.73,0.27-3.44,0.53-5.13,0.79c-1.7,0.15-3.38,0.19-5.04,0.29
											c-3.31,0.17-6.54-0.07-9.63-0.45c-6.19-0.8-11.8-2.55-16.7-4.69c-4.9-2.18-9.07-4.81-12.57-7.48l-1.14-0.87l0.88,1.14
											l0.02,0.03l0.11-0.3C746.55,282.59,737.79,284.71,736.48,285.03z"/>
									</g>
								</g>
							</g>
						</g>
					</g>
				</g>
			</g>
		</g>
	</g>
	<g>
		<g>
			<g>
				<g>
					<g>
						<g>
							<g>
								<path class="st4" d="M818.27,227.44c0,3.31,2.68,5.99,5.99,5.99c3.31,0,5.99-2.68,5.99-5.99c0-3.31-2.68-5.99-5.99-5.99
									C820.96,221.45,818.27,224.13,818.27,227.44z"/>
							</g>
						</g>
					</g>
				</g>
			</g>
		</g>
		<g>
			<g>
				<g>
					<g>
						<g>
							<g>
								<path class="st4" d="M794.3,227.44c0,3.31,2.68,5.99,5.99,5.99c3.31,0,5.99-2.68,5.99-5.99c0-3.31-2.68-5.99-5.99-5.99
									C796.98,221.45,794.3,224.13,794.3,227.44z"/>
							</g>
						</g>
					</g>
				</g>
			</g>
		</g>
		<g>
			<g>
				<g>
					<g>
						<g>
							<g>
								<path class="st4" d="M770.38,224.45c-1.65,2.87-0.67,6.53,2.19,8.19c2.87,1.65,6.53,0.67,8.19-2.19
									c1.65-2.87,0.67-6.53-2.19-8.18C775.7,220.6,772.03,221.58,770.38,224.45z"/>
							</g>
						</g>
					</g>
				</g>
			</g>
		</g>
	</g>
</g>
</svg>
