<svg version="1.1" id="Layer_1" xmlns="http://www.w3.org/2000/svg" xmlns:xlink="http://www.w3.org/1999/xlink" x="0px" y="0px"
	 viewBox="0 0 1080 1080" xml:space="preserve">
     <defs>  
        <linearGradient id="logo-gradient" x1="50%" y1="0%" x2="50%" y2="100%" > 
            
            <stop offset="0%" stop-color="#0562A6">
                <animate attributeName="stop-color" values="#0562A6; #80FFF6; #0562A6" dur="4s" repeatCount="indefinite"></animate>
            </stop>

            <stop offset="100%" stop-color="#80FFF6">
                <animate attributeName="stop-color" values="#80FFF6; #0562A6; #80FFF6" dur="4s" repeatCount="indefinite"></animate>
            </stop>

        </linearGradient> 

    </defs>
  
<path fill="url('#logo-gradient')" class="st0" d="M879.67,205.52c0.86,15.09,1.82,24.17,1.82,33.26c0.09,152.3,0.54,304.61-0.07,456.91
	c-0.79,197.48-156.68,352.13-347.74,345.94c-198.65-6.43-343.91-169.43-335.03-369.52c4.93-111,1.47-222.4,0.42-333.61
	c-0.21-22.25,6.5-36.46,24.4-49.91c102.37-76.9,203.8-155.06,305.63-232.7c6.53-4.98,13.7-9.13,26.67-17.69
	c0,65.88,0,126.68,0,196.35c55.83-39.19,104.04-73.03,158.69-111.39c0,66.49,0,125.58,0,193.09
	C772.82,277.13,824.32,242.62,879.67,205.52z M492.82,164.62c-79.46,60.42-151.33,114.36-221.94,169.9
	c-6.83,5.37-8.09,20.71-8.14,31.44c-0.53,109.02-0.68,218.06,0.1,327.08c0.16,22.9,4.7,45.76,6.97,68.66
	c2.21,22.27,15.91,31.67,36.4,36.69c97.67,23.91,189.92-53.99,189.14-159.95c-1.05-142.48-1.71-284.97-2.52-427.46
	C492.76,198.62,492.82,186.26,492.82,164.62z M818.51,325.39c-30.34,20.01-54.68,37.58-80.51,52.57
	c-17.68,10.26-23.5,23-23.45,43.28c0.18,77.42,0.73,154.96-3.1,232.25c-6.79,137.04-102.16,248.11-235.79,278.73
	c-19.06,4.37-38.48,7.22-63.55,11.84c12.55,6.61,19.49,11.01,26.96,14.09c172.67,71.06,371.1-55.95,378.6-243.11
	c2.22-55.52,0.75-111.2,0.82-166.81C818.57,476.2,818.51,404.17,818.51,325.39z M648.9,248.5c-22.05,15.41-39.88,29.78-59.49,41.07
	c-24.28,13.98-33.53,31.92-32.89,60.97c2.16,98.65,1.63,197.38,1.17,296.07c-0.5,108.34-69.71,192.82-175.44,215.88
	c-6.62,1.44-13.05,3.74-24.63,7.11c8.4,2.42,11.09,3.59,13.88,3.94c152.48,19.08,277.04-89.71,279.9-247.26
	c2.12-116.42,0.56-232.9,0.45-349.36C651.85,268.97,650.25,261.02,648.9,248.5z"/>
</svg>
